<svg width="104" height="40" viewBox="0 0 104 40" fill="none" xmlns="http://www.w3.org/2000/svg">
<path d="M77.3033 5.2832C77.6346 5.2832 77.9033 5.55183 77.9033 5.8832V36.4627C77.9033 36.794 77.6346 37.0627 77.3033 37.0627H71.9047C71.5733 37.0627 71.3047 36.794 71.3047 36.4627V5.8832C71.3047 5.55183 71.5733 5.2832 71.9047 5.2832H77.3033Z" fill="white"/>
<path d="M68.0611 13.2285C68.3925 13.2285 68.6611 13.4971 68.6611 13.8285V36.4627C68.6611 36.794 68.3925 37.0627 68.0611 37.0627H62.6625C62.3311 37.0627 62.0625 36.794 62.0625 36.4627V13.8285C62.0625 13.4971 62.3311 13.2285 62.6625 13.2285H68.0611Z" fill="white"/>
<path d="M84.5391 13.2285C82.3299 13.2285 80.5391 15.0194 80.5391 17.2285V36.4627C80.5391 36.794 80.8077 37.0627 81.1391 37.0627H86.5377C86.869 37.0627 87.1377 36.794 87.1377 36.4627V20.8491C87.1377 20.2968 87.5854 19.8491 88.1377 19.8491H92.7296C93.2819 19.8491 93.7296 20.2968 93.7296 20.8491V36.4627C93.7296 36.794 93.9982 37.0627 94.3296 37.0627H99.7282C100.06 37.0627 100.328 36.794 100.328 36.4627V17.2285C100.328 15.0194 98.5373 13.2285 96.3282 13.2285H84.5391Z" fill="white"/>
<path d="M65.3636 2.93359C63.3607 2.93359 61.7344 4.55797 61.7344 6.56261C61.7344 8.56723 63.3607 10.1916 65.3636 10.1916C67.3665 10.1916 68.9928 8.56723 68.9928 6.56261C68.9928 4.55797 67.3665 2.93359 65.3636 2.93359Z" fill="white"/>
<path d="M6.4456 17.4069C6.68019 17.1723 7.06063 17.1727 7.29483 17.4076L18.5851 28.7354C18.8196 28.9706 19.2005 28.9706 19.435 28.7354L30.7251 17.408C30.9593 17.173 31.3397 17.1727 31.5743 17.4073L34.1408 19.9738C35.0781 20.9111 35.0781 22.4307 34.1408 23.3679L20.7068 36.8019C19.7696 37.7392 18.25 37.7392 17.3127 36.8019L3.87872 23.3679C2.94147 22.4307 2.94147 20.9111 3.87873 19.9738L6.4456 17.4069Z" fill="white"/>
<path d="M13.841 19.3726C13.6065 19.6079 13.2255 19.6079 12.991 19.3726L9.16722 15.5361C8.93357 15.3017 8.93388 14.9223 9.16792 14.6883L17.3164 6.53986C18.2536 5.6026 19.7732 5.6026 20.7105 6.53986L28.8593 14.6886C29.0933 14.9227 29.0936 15.302 28.86 15.5365L25.0364 19.3727C24.802 19.6079 24.421 19.6079 24.1865 19.3727L19.4387 14.6091C19.2042 14.3739 18.8232 14.3739 18.5887 14.6091L13.841 19.3726Z" fill="#FF6521"/>
<path d="M53.7376 25.3518C53.6517 25.2225 53.6484 25.0552 53.7291 24.9226L60.2927 14.1381C60.536 13.7383 60.2482 13.2262 59.7801 13.2262L53.9248 13.2228C53.7154 13.2227 53.5222 13.3299 53.4132 13.5088C51.954 15.9048 50.5128 18.3126 49.031 20.6947C48.606 21.3779 47.5517 21.0758 47.5517 20.2712V6.87764C47.5517 6.54627 47.2851 6.28125 46.9537 6.28125H41.5522C41.2208 6.28125 40.9531 6.54504 40.9531 6.87641V36.4743C40.9531 36.8057 41.2218 37.0637 41.5531 37.0637H46.9517C47.2831 37.0637 47.5517 36.795 47.5517 36.4637V29.6274C47.5517 28.8219 48.609 28.5212 49.0381 29.2029C50.6556 31.772 52.3937 34.2705 54.0735 36.7992C54.1847 36.9666 54.3723 37.0672 54.5733 37.0672L60.3974 37.0672C60.876 37.0672 61.162 36.5343 60.8974 36.1355C58.5117 32.5403 56.1245 28.9461 53.7376 25.3518Z" fill="white"/>
</svg>
