<svg width="487" height="160" viewBox="0 0 487 160" fill="none" xmlns="http://www.w3.org/2000/svg">
<path d="M51.1601 19.69L51.2681 19.4737L51.3021 19.2314L51.3237 19.0777C51.9226 14.8171 52.5401 10.4234 52.3428 5.96668C65.399 14.9249 76.1751 27.7141 81.0815 43.0704C84.0768 55.0545 84.7619 66.8778 80.4024 77.8598C79.9891 78.6882 79.5783 79.5236 79.1662 80.3615C76.5039 85.7756 73.7876 91.2996 69.9928 95.7673C66.2666 99.8853 62.1541 103.452 57.9626 107.079L57.8637 107.165C53.719 110.751 49.4989 114.403 45.6574 118.632L45.6359 118.655L45.6154 118.68C41.7495 123.318 38.6346 128.013 36.2807 132.688L36.2518 132.745L36.2279 132.805C33.4568 139.725 32.5299 146.662 32.8664 154.042C19.0838 144.434 8.23442 131.512 3.30668 114.672C-3.32658 90.261 8.99645 66.1868 29.3897 51.4918L29.3898 51.4917C37.6169 45.5622 42.8903 37.9142 46.196 31.5963C47.8509 28.4333 49.0187 25.5922 49.8197 23.4495C50.2201 22.3785 50.5291 21.4812 50.7584 20.8141L50.7686 20.7844C50.8797 20.4611 50.9681 20.204 51.0402 20.0034C51.0771 19.9009 51.1065 19.8223 51.1298 19.7635C51.1467 19.7207 51.1562 19.699 51.1592 19.6922C51.16 19.6903 51.1603 19.6896 51.1601 19.69Z" fill="#114FC1" stroke="white" stroke-width="3"/>
<mask id="path-2-outside-1_2_11" maskUnits="userSpaceOnUse" x="118" y="19" width="365" height="112" fill="black">
<rect fill="white" x="118" y="19" width="365" height="112"/>
<path d="M140.44 102.528L131.096 82.048L173.72 38.4H205.08L140.44 102.528ZM121.24 128V38.4H148.888V128H121.24ZM177.432 128L144.92 85.632L162.84 70.144L208.792 128H177.432ZM214.21 128V59.52H238.274L239.81 82.304L234.05 78.72C235.159 74.7947 236.909 71.296 239.298 68.224C241.687 65.0667 244.546 62.592 247.874 60.8C251.287 59.008 254.914 58.112 258.754 58.112C260.29 58.112 261.741 58.24 263.106 58.496C264.471 58.6667 265.794 58.9227 267.074 59.264L259.906 88.064C259.053 87.4667 257.687 86.912 255.81 86.4C254.018 85.888 252.055 85.632 249.922 85.632C248.386 85.632 246.978 85.888 245.698 86.4C244.503 86.8267 243.479 87.5093 242.626 88.448C241.858 89.3867 241.261 90.496 240.834 91.776C240.407 93.056 240.194 94.5493 240.194 96.256V128H214.21ZM277.719 128V59.52H303.703V128H277.719ZM290.775 47.104C286.167 47.104 282.54 46.0373 279.895 43.904C277.335 41.7707 276.055 38.7413 276.055 34.816C276.055 31.232 277.378 28.288 280.023 25.984C282.668 23.68 286.252 22.528 290.775 22.528C295.383 22.528 298.967 23.5947 301.527 25.728C304.172 27.8613 305.495 30.8907 305.495 34.816C305.495 38.4 304.172 41.344 301.527 43.648C298.882 45.952 295.298 47.104 290.775 47.104ZM322.085 128V33.28H348.069V128H322.085ZM366.344 128V59.52H392.328V128H366.344ZM379.4 47.104C374.792 47.104 371.165 46.0373 368.52 43.904C365.96 41.7707 364.68 38.7413 364.68 34.816C364.68 31.232 366.003 28.288 368.648 25.984C371.293 23.68 374.877 22.528 379.4 22.528C384.008 22.528 387.592 23.5947 390.152 25.728C392.797 27.8613 394.12 30.8907 394.12 34.816C394.12 38.4 392.797 41.344 390.152 43.648C387.507 45.952 383.923 47.104 379.4 47.104ZM410.71 128V59.52H434.774L436.054 73.344L430.55 74.88C431.489 71.6373 433.153 68.7787 435.542 66.304C438.017 63.744 440.961 61.7387 444.374 60.288C447.787 58.8373 451.414 58.112 455.254 58.112C460.374 58.112 464.726 59.1787 468.31 61.312C471.894 63.4453 474.582 66.6027 476.374 70.784C478.251 74.88 479.19 79.872 479.19 85.76V128H453.206V87.936C453.206 86.0587 452.907 84.48 452.31 83.2C451.713 81.92 450.817 80.9387 449.622 80.256C448.427 79.5733 447.019 79.232 445.398 79.232C444.118 79.232 442.923 79.4453 441.814 79.872C440.79 80.2133 439.894 80.768 439.126 81.536C438.358 82.304 437.761 83.1573 437.334 84.096C436.907 85.0347 436.694 86.1013 436.694 87.296V128H423.766C420.523 128 417.793 128 415.574 128C413.441 128 411.819 128 410.71 128Z"/>
</mask>
<path d="M140.44 102.528L131.096 82.048L173.72 38.4H205.08L140.44 102.528ZM121.24 128V38.4H148.888V128H121.24ZM177.432 128L144.92 85.632L162.84 70.144L208.792 128H177.432ZM214.21 128V59.52H238.274L239.81 82.304L234.05 78.72C235.159 74.7947 236.909 71.296 239.298 68.224C241.687 65.0667 244.546 62.592 247.874 60.8C251.287 59.008 254.914 58.112 258.754 58.112C260.29 58.112 261.741 58.24 263.106 58.496C264.471 58.6667 265.794 58.9227 267.074 59.264L259.906 88.064C259.053 87.4667 257.687 86.912 255.81 86.4C254.018 85.888 252.055 85.632 249.922 85.632C248.386 85.632 246.978 85.888 245.698 86.4C244.503 86.8267 243.479 87.5093 242.626 88.448C241.858 89.3867 241.261 90.496 240.834 91.776C240.407 93.056 240.194 94.5493 240.194 96.256V128H214.21ZM277.719 128V59.52H303.703V128H277.719ZM290.775 47.104C286.167 47.104 282.54 46.0373 279.895 43.904C277.335 41.7707 276.055 38.7413 276.055 34.816C276.055 31.232 277.378 28.288 280.023 25.984C282.668 23.68 286.252 22.528 290.775 22.528C295.383 22.528 298.967 23.5947 301.527 25.728C304.172 27.8613 305.495 30.8907 305.495 34.816C305.495 38.4 304.172 41.344 301.527 43.648C298.882 45.952 295.298 47.104 290.775 47.104ZM322.085 128V33.28H348.069V128H322.085ZM366.344 128V59.52H392.328V128H366.344ZM379.4 47.104C374.792 47.104 371.165 46.0373 368.52 43.904C365.96 41.7707 364.68 38.7413 364.68 34.816C364.68 31.232 366.003 28.288 368.648 25.984C371.293 23.68 374.877 22.528 379.4 22.528C384.008 22.528 387.592 23.5947 390.152 25.728C392.797 27.8613 394.12 30.8907 394.12 34.816C394.12 38.4 392.797 41.344 390.152 43.648C387.507 45.952 383.923 47.104 379.4 47.104ZM410.71 128V59.52H434.774L436.054 73.344L430.55 74.88C431.489 71.6373 433.153 68.7787 435.542 66.304C438.017 63.744 440.961 61.7387 444.374 60.288C447.787 58.8373 451.414 58.112 455.254 58.112C460.374 58.112 464.726 59.1787 468.31 61.312C471.894 63.4453 474.582 66.6027 476.374 70.784C478.251 74.88 479.19 79.872 479.19 85.76V128H453.206V87.936C453.206 86.0587 452.907 84.48 452.31 83.2C451.713 81.92 450.817 80.9387 449.622 80.256C448.427 79.5733 447.019 79.232 445.398 79.232C444.118 79.232 442.923 79.4453 441.814 79.872C440.79 80.2133 439.894 80.768 439.126 81.536C438.358 82.304 437.761 83.1573 437.334 84.096C436.907 85.0347 436.694 86.1013 436.694 87.296V128H423.766C420.523 128 417.793 128 415.574 128C413.441 128 411.819 128 410.71 128Z" fill="#114FC1"/>
<path d="M140.44 102.528L137.711 103.773L139.497 107.689L142.553 104.658L140.44 102.528ZM131.096 82.048L128.95 79.952L127.513 81.4229L128.367 83.2933L131.096 82.048ZM173.72 38.4V35.4H172.456L171.574 36.304L173.72 38.4ZM205.08 38.4L207.193 40.5297L212.364 35.4H205.08V38.4ZM121.24 128H118.24V131H121.24V128ZM121.24 38.4V35.4H118.24V38.4H121.24ZM148.888 38.4H151.888V35.4H148.888V38.4ZM148.888 128V131H151.888V128H148.888ZM177.432 128L175.052 129.826L175.953 131H177.432V128ZM144.92 85.632L142.958 83.3623L140.817 85.213L142.54 87.4583L144.92 85.632ZM162.84 70.144L165.189 68.2782L163.244 65.8294L160.878 67.8743L162.84 70.144ZM208.792 128V131H215.006L211.141 126.134L208.792 128ZM143.169 101.283L133.825 80.8027L128.367 83.2933L137.711 103.773L143.169 101.283ZM133.242 84.144L175.866 40.496L171.574 36.304L128.95 79.952L133.242 84.144ZM173.72 41.4H205.08V35.4H173.72V41.4ZM202.967 36.2703L138.327 100.398L142.553 104.658L207.193 40.5297L202.967 36.2703ZM124.24 128V38.4H118.24V128H124.24ZM121.24 41.4H148.888V35.4H121.24V41.4ZM145.888 38.4V128H151.888V38.4H145.888ZM148.888 125H121.24V131H148.888V125ZM179.812 126.174L147.3 83.8056L142.54 87.4583L175.052 129.826L179.812 126.174ZM146.882 87.9017L164.802 72.4137L160.878 67.8743L142.958 83.3623L146.882 87.9017ZM160.491 72.0098L206.443 129.866L211.141 126.134L165.189 68.2782L160.491 72.0098ZM208.792 125H177.432V131H208.792V125ZM214.21 128H211.21V131H214.21V128ZM214.21 59.52V56.52H211.21V59.52H214.21ZM238.274 59.52L241.267 59.3182L241.079 56.52H238.274V59.52ZM239.81 82.304L238.225 84.8512L243.197 87.9449L242.803 82.1022L239.81 82.304ZM234.05 78.72L231.163 77.9041L230.549 80.0752L232.465 81.2672L234.05 78.72ZM239.298 68.224L241.666 70.0658L241.678 70.0502L241.69 70.0343L239.298 68.224ZM247.874 60.8L246.48 58.1438L246.466 58.1511L246.452 58.1586L247.874 60.8ZM263.106 58.496L262.553 61.4446L262.643 61.4615L262.734 61.4728L263.106 58.496ZM267.074 59.264L269.985 59.9886L270.698 57.1255L267.847 56.3653L267.074 59.264ZM259.906 88.064L258.186 90.5217L261.763 93.0256L262.817 88.7886L259.906 88.064ZM255.81 86.4L254.986 89.2846L255.003 89.2895L255.021 89.2943L255.81 86.4ZM245.698 86.4L246.707 89.2252L246.76 89.2063L246.812 89.1854L245.698 86.4ZM242.626 88.448L240.406 86.43L240.354 86.4878L240.304 86.5483L242.626 88.448ZM240.834 91.776L243.68 92.7247L243.68 92.7247L240.834 91.776ZM240.194 128V131H243.194V128H240.194ZM217.21 128V59.52H211.21V128H217.21ZM214.21 62.52H238.274V56.52H214.21V62.52ZM235.281 59.7218L236.817 82.5058L242.803 82.1022L241.267 59.3182L235.281 59.7218ZM241.395 79.7568L235.635 76.1728L232.465 81.2672L238.225 84.8512L241.395 79.7568ZM236.937 79.5359C237.946 75.9646 239.526 72.8179 241.666 70.0658L236.93 66.3822C234.292 69.7741 232.372 73.6248 231.163 77.9041L236.937 79.5359ZM241.69 70.0343C243.832 67.2037 246.366 65.0195 249.296 63.4414L246.452 58.1586C242.726 60.1645 239.542 62.9296 236.906 66.4137L241.69 70.0343ZM249.268 63.4562C252.253 61.8891 255.402 61.112 258.754 61.112V55.112C254.426 55.112 250.321 56.1269 246.48 58.1438L249.268 63.4562ZM258.754 61.112C260.124 61.112 261.388 61.2262 262.553 61.4446L263.659 55.5474C262.093 55.2538 260.456 55.112 258.754 55.112V61.112ZM262.734 61.4728C263.969 61.6272 265.158 61.8578 266.301 62.1627L267.847 56.3653C266.43 55.9875 264.973 55.7061 263.478 55.5192L262.734 61.4728ZM264.163 58.5394L256.995 87.3394L262.817 88.7886L269.985 59.9886L264.163 58.5394ZM261.626 85.6063C260.342 84.707 258.573 84.0439 256.599 83.5057L255.021 89.2943C256.802 89.7801 257.764 90.2263 258.186 90.5217L261.626 85.6063ZM256.634 83.5154C254.539 82.9167 252.295 82.632 249.922 82.632V88.632C251.816 88.632 253.497 88.8593 254.986 89.2846L256.634 83.5154ZM249.922 82.632C248.048 82.632 246.256 82.9455 244.584 83.6146L246.812 89.1854C247.7 88.8305 248.724 88.632 249.922 88.632V82.632ZM244.689 83.5748C243.031 84.1671 241.591 85.1269 240.406 86.43L244.846 90.466C245.368 89.8917 245.976 89.4863 246.707 89.2252L244.689 83.5748ZM240.304 86.5483C239.28 87.7995 238.517 89.2399 237.988 90.8273L243.68 92.7247C244.004 91.7521 244.436 90.9739 244.948 90.3477L240.304 86.5483ZM237.988 90.8273C237.436 92.4819 237.194 94.3083 237.194 96.256H243.194C243.194 94.7904 243.378 93.6301 243.68 92.7247L237.988 90.8273ZM237.194 96.256V128H243.194V96.256H237.194ZM240.194 125H214.21V131H240.194V125ZM277.719 128H274.719V131H277.719V128ZM277.719 59.52V56.52H274.719V59.52H277.719ZM303.703 59.52H306.703V56.52H303.703V59.52ZM303.703 128V131H306.703V128H303.703ZM279.895 43.904L277.974 46.2087L277.993 46.2241L278.012 46.2392L279.895 43.904ZM301.527 25.728L299.606 28.0327L299.625 28.0481L299.644 28.0632L301.527 25.728ZM301.527 43.648L299.557 41.3857L299.557 41.3858L301.527 43.648ZM280.719 128V59.52H274.719V128H280.719ZM277.719 62.52H303.703V56.52H277.719V62.52ZM300.703 59.52V128H306.703V59.52H300.703ZM303.703 125H277.719V131H303.703V125ZM290.775 44.104C286.609 44.104 283.728 43.1408 281.778 41.5688L278.012 46.2392C281.353 48.9338 285.725 50.104 290.775 50.104V44.104ZM281.816 41.5993C280.064 40.1397 279.055 38.0268 279.055 34.816H273.055C273.055 39.4559 274.606 43.4016 277.974 46.2087L281.816 41.5993ZM279.055 34.816C279.055 32.0779 280.018 29.9665 281.993 28.2462L278.053 23.7217C274.737 26.6095 273.055 30.3861 273.055 34.816H279.055ZM281.993 28.2462C283.95 26.5421 286.762 25.528 290.775 25.528V19.528C285.743 19.528 281.387 20.8178 278.053 23.7217L281.993 28.2462ZM290.775 25.528C294.948 25.528 297.76 26.4941 299.606 28.0327L303.448 23.4233C300.174 20.6953 295.818 19.528 290.775 19.528V25.528ZM299.644 28.0632C301.468 29.5348 302.495 31.6399 302.495 34.816H308.495C308.495 30.1414 306.876 26.1879 303.41 23.3928L299.644 28.0632ZM302.495 34.816C302.495 37.5541 301.532 39.6655 299.557 41.3857L303.497 45.9102C306.813 43.0225 308.495 39.2459 308.495 34.816H302.495ZM299.557 41.3858C297.6 43.0898 294.788 44.104 290.775 44.104V50.104C295.807 50.104 300.163 48.8141 303.497 45.9102L299.557 41.3858ZM322.085 128H319.085V131H322.085V128ZM322.085 33.28V30.28H319.085V33.28H322.085ZM348.069 33.28H351.069V30.28H348.069V33.28ZM348.069 128V131H351.069V128H348.069ZM325.085 128V33.28H319.085V128H325.085ZM322.085 36.28H348.069V30.28H322.085V36.28ZM345.069 33.28V128H351.069V33.28H345.069ZM348.069 125H322.085V131H348.069V125ZM366.344 128H363.344V131H366.344V128ZM366.344 59.52V56.52H363.344V59.52H366.344ZM392.328 59.52H395.328V56.52H392.328V59.52ZM392.328 128V131H395.328V128H392.328ZM368.52 43.904L366.599 46.2087L366.618 46.2241L366.637 46.2392L368.52 43.904ZM390.152 25.728L388.231 28.0327L388.25 28.0481L388.269 28.0632L390.152 25.728ZM390.152 43.648L388.182 41.3857L388.182 41.3858L390.152 43.648ZM369.344 128V59.52H363.344V128H369.344ZM366.344 62.52H392.328V56.52H366.344V62.52ZM389.328 59.52V128H395.328V59.52H389.328ZM392.328 125H366.344V131H392.328V125ZM379.4 44.104C375.234 44.104 372.353 43.1408 370.403 41.5688L366.637 46.2392C369.978 48.9338 374.35 50.104 379.4 50.104V44.104ZM370.441 41.5993C368.689 40.1397 367.68 38.0268 367.68 34.816H361.68C361.68 39.4559 363.231 43.4016 366.599 46.2087L370.441 41.5993ZM367.68 34.816C367.68 32.0779 368.643 29.9665 370.618 28.2462L366.678 23.7217C363.362 26.6095 361.68 30.3861 361.68 34.816H367.68ZM370.618 28.2462C372.575 26.5421 375.387 25.528 379.4 25.528V19.528C374.368 19.528 370.012 20.8178 366.678 23.7217L370.618 28.2462ZM379.4 25.528C383.573 25.528 386.385 26.4941 388.231 28.0327L392.073 23.4233C388.799 20.6953 384.443 19.528 379.4 19.528V25.528ZM388.269 28.0632C390.093 29.5348 391.12 31.6399 391.12 34.816H397.12C397.12 30.1414 395.501 26.1879 392.035 23.3928L388.269 28.0632ZM391.12 34.816C391.12 37.5541 390.157 39.6655 388.182 41.3857L392.122 45.9102C395.438 43.0225 397.12 39.2459 397.12 34.816H391.12ZM388.182 41.3858C386.225 43.0898 383.413 44.104 379.4 44.104V50.104C384.432 50.104 388.788 48.8141 392.122 45.9102L388.182 41.3858ZM410.71 128H407.71V131H410.71V128ZM410.71 59.52V56.52H407.71V59.52H410.71ZM434.774 59.52L437.761 59.2434L437.509 56.52H434.774V59.52ZM436.054 73.344L436.86 76.2336L439.272 75.5606L439.041 73.0674L436.054 73.344ZM430.55 74.88L427.668 74.0458L426.172 79.2165L431.356 77.7696L430.55 74.88ZM435.542 66.304L433.385 64.2189L433.384 64.2202L435.542 66.304ZM444.374 60.288L443.201 57.527L443.201 57.527L444.374 60.288ZM468.31 61.312L469.844 58.7341L469.844 58.7341L468.31 61.312ZM476.374 70.784L473.617 71.9658L473.631 72L473.647 72.034L476.374 70.784ZM479.19 128V131H482.19V128H479.19ZM453.206 128H450.206V131H453.206V128ZM452.31 83.2L455.029 81.9313L455.029 81.9313L452.31 83.2ZM449.622 80.256L451.11 77.6513L451.11 77.6513L449.622 80.256ZM441.814 79.872L442.763 82.718L442.827 82.6965L442.891 82.672L441.814 79.872ZM437.334 84.096L440.065 85.3374L440.065 85.3374L437.334 84.096ZM436.694 128V131H439.694V128H436.694ZM413.71 128V59.52H407.71V128H413.71ZM410.71 62.52H434.774V56.52H410.71V62.52ZM431.787 59.7966L433.067 73.6206L439.041 73.0674L437.761 59.2434L431.787 59.7966ZM435.248 70.4544L429.744 71.9904L431.356 77.7696L436.86 76.2336L435.248 70.4544ZM433.432 75.7142C434.232 72.9499 435.643 70.518 437.7 68.3878L433.384 64.2202C430.662 67.0394 428.745 70.3247 427.668 74.0458L433.432 75.7142ZM437.699 68.3891C439.883 66.13 442.488 64.3492 445.547 63.049L443.201 57.527C439.433 59.1282 436.151 61.358 433.385 64.2189L437.699 68.3891ZM445.547 63.049C448.576 61.7616 451.803 61.112 455.254 61.112V55.112C451.025 55.112 446.998 55.913 443.201 57.527L445.547 63.049ZM455.254 61.112C459.956 61.112 463.751 62.0894 466.776 63.8899L469.844 58.7341C465.701 56.2679 460.792 55.112 455.254 55.112V61.112ZM466.776 63.8899C469.765 65.6691 472.051 68.3116 473.617 71.9658L479.131 69.6022C477.113 64.8937 474.023 61.2215 469.844 58.7341L466.776 63.8899ZM473.647 72.034C475.298 75.637 476.19 80.1767 476.19 85.76H482.19C482.19 79.5673 481.204 74.123 479.101 69.534L473.647 72.034ZM476.19 85.76V128H482.19V85.76H476.19ZM479.19 125H453.206V131H479.19V125ZM456.206 128V87.936H450.206V128H456.206ZM456.206 87.936C456.206 85.7577 455.862 83.7167 455.029 81.9313L449.591 84.4687C449.953 85.2433 450.206 86.3596 450.206 87.936H456.206ZM455.029 81.9313C454.177 80.1055 452.858 78.6501 451.11 77.6513L448.134 82.8607C448.775 83.2272 449.249 83.7345 449.591 84.4687L455.029 81.9313ZM451.11 77.6513C449.388 76.6668 447.448 76.232 445.398 76.232V82.232C446.591 82.232 447.467 82.4799 448.134 82.8607L451.11 77.6513ZM445.398 76.232C443.778 76.232 442.216 76.5033 440.737 77.072L442.891 82.672C443.631 82.3874 444.458 82.232 445.398 82.232V76.232ZM440.865 77.0259C439.397 77.5155 438.1 78.3195 437.005 79.4147L441.247 83.6573C441.688 83.2165 442.183 82.9112 442.763 82.718L440.865 77.0259ZM437.005 79.4147C435.996 80.4233 435.186 81.5712 434.603 82.8546L440.065 85.3374C440.335 84.7434 440.72 84.1847 441.247 83.6573L437.005 79.4147ZM434.603 82.8546C433.973 84.2402 433.694 85.7406 433.694 87.296H439.694C439.694 86.462 439.842 85.8291 440.065 85.3374L434.603 82.8546ZM433.694 87.296V128H439.694V87.296H433.694ZM436.694 125H423.766V131H436.694V125ZM423.766 125C423.76 125 423.753 125 423.747 125C423.741 125 423.734 125 423.728 125C423.722 125 423.715 125 423.709 125C423.703 125 423.696 125 423.69 125C423.684 125 423.677 125 423.671 125C423.665 125 423.659 125 423.652 125C423.646 125 423.64 125 423.633 125C423.627 125 423.621 125 423.614 125C423.608 125 423.602 125 423.595 125C423.589 125 423.583 125 423.577 125C423.57 125 423.564 125 423.558 125C423.551 125 423.545 125 423.539 125C423.533 125 423.526 125 423.52 125C423.514 125 423.507 125 423.501 125C423.495 125 423.489 125 423.482 125C423.476 125 423.47 125 423.464 125C423.457 125 423.451 125 423.445 125C423.438 125 423.432 125 423.426 125C423.42 125 423.413 125 423.407 125C423.401 125 423.395 125 423.388 125C423.382 125 423.376 125 423.37 125C423.363 125 423.357 125 423.351 125C423.345 125 423.338 125 423.332 125C423.326 125 423.32 125 423.313 125C423.307 125 423.301 125 423.295 125C423.288 125 423.282 125 423.276 125C423.27 125 423.264 125 423.257 125C423.251 125 423.245 125 423.239 125C423.232 125 423.226 125 423.22 125C423.214 125 423.207 125 423.201 125C423.195 125 423.189 125 423.183 125C423.176 125 423.17 125 423.164 125C423.158 125 423.152 125 423.145 125C423.139 125 423.133 125 423.127 125C423.121 125 423.114 125 423.108 125C423.102 125 423.096 125 423.09 125C423.083 125 423.077 125 423.071 125C423.065 125 423.059 125 423.052 125C423.046 125 423.04 125 423.034 125C423.028 125 423.022 125 423.015 125C423.009 125 423.003 125 422.997 125C422.991 125 422.985 125 422.978 125C422.972 125 422.966 125 422.96 125C422.954 125 422.948 125 422.941 125C422.935 125 422.929 125 422.923 125C422.917 125 422.911 125 422.904 125C422.898 125 422.892 125 422.886 125C422.88 125 422.874 125 422.868 125C422.861 125 422.855 125 422.849 125C422.843 125 422.837 125 422.831 125C422.825 125 422.818 125 422.812 125C422.806 125 422.8 125 422.794 125C422.788 125 422.782 125 422.775 125C422.769 125 422.763 125 422.757 125C422.751 125 422.745 125 422.739 125C422.733 125 422.726 125 422.72 125C422.714 125 422.708 125 422.702 125C422.696 125 422.69 125 422.684 125C422.678 125 422.672 125 422.665 125C422.659 125 422.653 125 422.647 125C422.641 125 422.635 125 422.629 125C422.623 125 422.617 125 422.611 125C422.604 125 422.598 125 422.592 125C422.586 125 422.58 125 422.574 125C422.568 125 422.562 125 422.556 125C422.55 125 422.544 125 422.538 125C422.531 125 422.525 125 422.519 125C422.513 125 422.507 125 422.501 125C422.495 125 422.489 125 422.483 125C422.477 125 422.471 125 422.465 125C422.459 125 422.453 125 422.447 125C422.44 125 422.434 125 422.428 125C422.422 125 422.416 125 422.41 125C422.404 125 422.398 125 422.392 125C422.386 125 422.38 125 422.374 125C422.368 125 422.362 125 422.356 125C422.35 125 422.344 125 422.338 125C422.332 125 422.326 125 422.32 125C422.314 125 422.308 125 422.302 125C422.296 125 422.29 125 422.284 125C422.277 125 422.271 125 422.265 125C422.259 125 422.253 125 422.247 125C422.241 125 422.235 125 422.229 125C422.223 125 422.217 125 422.211 125C422.205 125 422.199 125 422.193 125C422.187 125 422.181 125 422.175 125C422.169 125 422.163 125 422.157 125C422.151 125 422.145 125 422.139 125C422.133 125 422.127 125 422.121 125C422.115 125 422.109 125 422.103 125C422.097 125 422.091 125 422.086 125C422.08 125 422.074 125 422.068 125C422.062 125 422.056 125 422.05 125C422.044 125 422.038 125 422.032 125C422.026 125 422.02 125 422.014 125C422.008 125 422.002 125 421.996 125C421.99 125 421.984 125 421.978 125C421.972 125 421.966 125 421.96 125C421.954 125 421.948 125 421.942 125C421.936 125 421.931 125 421.925 125C421.919 125 421.913 125 421.907 125C421.901 125 421.895 125 421.889 125C421.883 125 421.877 125 421.871 125C421.865 125 421.859 125 421.853 125C421.847 125 421.842 125 421.836 125C421.83 125 421.824 125 421.818 125C421.812 125 421.806 125 421.8 125C421.794 125 421.788 125 421.782 125C421.776 125 421.771 125 421.765 125C421.759 125 421.753 125 421.747 125C421.741 125 421.735 125 421.729 125C421.723 125 421.717 125 421.712 125C421.706 125 421.7 125 421.694 125C421.688 125 421.682 125 421.676 125C421.67 125 421.664 125 421.658 125C421.653 125 421.647 125 421.641 125C421.635 125 421.629 125 421.623 125C421.617 125 421.611 125 421.606 125C421.6 125 421.594 125 421.588 125C421.582 125 421.576 125 421.57 125C421.565 125 421.559 125 421.553 125C421.547 125 421.541 125 421.535 125C421.529 125 421.523 125 421.518 125C421.512 125 421.506 125 421.5 125C421.494 125 421.488 125 421.483 125C421.477 125 421.471 125 421.465 125C421.459 125 421.453 125 421.448 125C421.442 125 421.436 125 421.43 125C421.424 125 421.418 125 421.413 125C421.407 125 421.401 125 421.395 125C421.389 125 421.383 125 421.378 125C421.372 125 421.366 125 421.36 125C421.354 125 421.348 125 421.343 125C421.337 125 421.331 125 421.325 125C421.319 125 421.314 125 421.308 125C421.302 125 421.296 125 421.29 125C421.285 125 421.279 125 421.273 125C421.267 125 421.261 125 421.256 125C421.25 125 421.244 125 421.238 125C421.232 125 421.227 125 421.221 125C421.215 125 421.209 125 421.203 125C421.198 125 421.192 125 421.186 125C421.18 125 421.175 125 421.169 125C421.163 125 421.157 125 421.152 125C421.146 125 421.14 125 421.134 125C421.128 125 421.123 125 421.117 125C421.111 125 421.105 125 421.1 125C421.094 125 421.088 125 421.082 125C421.077 125 421.071 125 421.065 125C421.059 125 421.054 125 421.048 125C421.042 125 421.036 125 421.031 125C421.025 125 421.019 125 421.013 125C421.008 125 421.002 125 420.996 125C420.99 125 420.985 125 420.979 125C420.973 125 420.967 125 420.962 125C420.956 125 420.95 125 420.945 125C420.939 125 420.933 125 420.927 125C420.922 125 420.916 125 420.91 125C420.905 125 420.899 125 420.893 125C420.887 125 420.882 125 420.876 125C420.87 125 420.865 125 420.859 125C420.853 125 420.847 125 420.842 125C420.836 125 420.83 125 420.825 125C420.819 125 420.813 125 420.808 125C420.802 125 420.796 125 420.791 125C420.785 125 420.779 125 420.773 125C420.768 125 420.762 125 420.756 125C420.751 125 420.745 125 420.739 125C420.734 125 420.728 125 420.722 125C420.717 125 420.711 125 420.705 125C420.7 125 420.694 125 420.688 125C420.683 125 420.677 125 420.671 125C420.666 125 420.66 125 420.654 125C420.649 125 420.643 125 420.637 125C420.632 125 420.626 125 420.62 125C420.615 125 420.609 125 420.604 125C420.598 125 420.592 125 420.587 125C420.581 125 420.575 125 420.57 125C420.564 125 420.558 125 420.553 125C420.547 125 420.541 125 420.536 125C420.53 125 420.525 125 420.519 125C420.513 125 420.508 125 420.502 125C420.496 125 420.491 125 420.485 125C420.48 125 420.474 125 420.468 125C420.463 125 420.457 125 420.452 125C420.446 125 420.44 125 420.435 125C420.429 125 420.423 125 420.418 125C420.412 125 420.407 125 420.401 125C420.395 125 420.39 125 420.384 125C420.379 125 420.373 125 420.368 125C420.362 125 420.356 125 420.351 125C420.345 125 420.34 125 420.334 125C420.328 125 420.323 125 420.317 125C420.312 125 420.306 125 420.301 125C420.295 125 420.289 125 420.284 125C420.278 125 420.273 125 420.267 125C420.262 125 420.256 125 420.25 125C420.245 125 420.239 125 420.234 125C420.228 125 420.223 125 420.217 125C420.211 125 420.206 125 420.2 125C420.195 125 420.189 125 420.184 125C420.178 125 420.173 125 420.167 125C420.162 125 420.156 125 420.15 125C420.145 125 420.139 125 420.134 125C420.128 125 420.123 125 420.117 125C420.112 125 420.106 125 420.101 125C420.095 125 420.09 125 420.084 125C420.079 125 420.073 125 420.068 125C420.062 125 420.056 125 420.051 125C420.045 125 420.04 125 420.034 125C420.029 125 420.023 125 420.018 125C420.012 125 420.007 125 420.001 125C419.996 125 419.99 125 419.985 125C419.979 125 419.974 125 419.968 125C419.963 125 419.957 125 419.952 125C419.946 125 419.941 125 419.935 125C419.93 125 419.924 125 419.919 125C419.913 125 419.908 125 419.902 125C419.897 125 419.891 125 419.886 125C419.881 125 419.875 125 419.87 125C419.864 125 419.859 125 419.853 125C419.848 125 419.842 125 419.837 125C419.831 125 419.826 125 419.82 125C419.815 125 419.809 125 419.804 125C419.799 125 419.793 125 419.788 125C419.782 125 419.777 125 419.771 125C419.766 125 419.76 125 419.755 125C419.749 125 419.744 125 419.739 125C419.733 125 419.728 125 419.722 125C419.717 125 419.711 125 419.706 125C419.701 125 419.695 125 419.69 125C419.684 125 419.679 125 419.673 125C419.668 125 419.663 125 419.657 125C419.652 125 419.646 125 419.641 125C419.635 125 419.63 125 419.625 125C419.619 125 419.614 125 419.608 125C419.603 125 419.598 125 419.592 125C419.587 125 419.581 125 419.576 125C419.57 125 419.565 125 419.56 125C419.554 125 419.549 125 419.544 125C419.538 125 419.533 125 419.527 125C419.522 125 419.517 125 419.511 125C419.506 125 419.5 125 419.495 125C419.49 125 419.484 125 419.479 125C419.473 125 419.468 125 419.463 125C419.457 125 419.452 125 419.447 125C419.441 125 419.436 125 419.43 125C419.425 125 419.42 125 419.414 125C419.409 125 419.404 125 419.398 125C419.393 125 419.388 125 419.382 125C419.377 125 419.371 125 419.366 125C419.361 125 419.355 125 419.35 125C419.345 125 419.339 125 419.334 125C419.329 125 419.323 125 419.318 125C419.313 125 419.307 125 419.302 125C419.297 125 419.291 125 419.286 125C419.281 125 419.275 125 419.27 125C419.265 125 419.259 125 419.254 125C419.249 125 419.243 125 419.238 125C419.233 125 419.227 125 419.222 125C419.217 125 419.211 125 419.206 125C419.201 125 419.196 125 419.19 125C419.185 125 419.18 125 419.174 125C419.169 125 419.164 125 419.158 125C419.153 125 419.148 125 419.142 125C419.137 125 419.132 125 419.127 125C419.121 125 419.116 125 419.111 125C419.105 125 419.1 125 419.095 125C419.09 125 419.084 125 419.079 125C419.074 125 419.068 125 419.063 125C419.058 125 419.053 125 419.047 125C419.042 125 419.037 125 419.032 125C419.026 125 419.021 125 419.016 125C419.01 125 419.005 125 419 125C418.995 125 418.989 125 418.984 125C418.979 125 418.974 125 418.968 125C418.963 125 418.958 125 418.953 125C418.947 125 418.942 125 418.937 125C418.932 125 418.926 125 418.921 125C418.916 125 418.911 125 418.905 125C418.9 125 418.895 125 418.89 125C418.884 125 418.879 125 418.874 125C418.869 125 418.863 125 418.858 125C418.853 125 418.848 125 418.843 125C418.837 125 418.832 125 418.827 125C418.822 125 418.816 125 418.811 125C418.806 125 418.801 125 418.796 125C418.79 125 418.785 125 418.78 125C418.775 125 418.77 125 418.764 125C418.759 125 418.754 125 418.749 125C418.744 125 418.738 125 418.733 125C418.728 125 418.723 125 418.718 125C418.712 125 418.707 125 418.702 125C418.697 125 418.692 125 418.686 125C418.681 125 418.676 125 418.671 125C418.666 125 418.661 125 418.655 125C418.65 125 418.645 125 418.64 125C418.635 125 418.63 125 418.624 125C418.619 125 418.614 125 418.609 125C418.604 125 418.599 125 418.593 125C418.588 125 418.583 125 418.578 125C418.573 125 418.568 125 418.562 125C418.557 125 418.552 125 418.547 125C418.542 125 418.537 125 418.532 125C418.526 125 418.521 125 418.516 125C418.511 125 418.506 125 418.501 125C418.496 125 418.49 125 418.485 125C418.48 125 418.475 125 418.47 125C418.465 125 418.46 125 418.454 125C418.449 125 418.444 125 418.439 125C418.434 125 418.429 125 418.424 125C418.419 125 418.413 125 418.408 125C418.403 125 418.398 125 418.393 125C418.388 125 418.383 125 418.378 125C418.373 125 418.367 125 418.362 125C418.357 125 418.352 125 418.347 125C418.342 125 418.337 125 418.332 125C418.327 125 418.322 125 418.317 125C418.311 125 418.306 125 418.301 125C418.296 125 418.291 125 418.286 125C418.281 125 418.276 125 418.271 125C418.266 125 418.261 125 418.256 125C418.25 125 418.245 125 418.24 125C418.235 125 418.23 125 418.225 125C418.22 125 418.215 125 418.21 125C418.205 125 418.2 125 418.195 125C418.19 125 418.185 125 418.18 125C418.174 125 418.169 125 418.164 125C418.159 125 418.154 125 418.149 125C418.144 125 418.139 125 418.134 125C418.129 125 418.124 125 418.119 125C418.114 125 418.109 125 418.104 125C418.099 125 418.094 125 418.089 125C418.084 125 418.079 125 418.074 125C418.069 125 418.064 125 418.059 125C418.054 125 418.049 125 418.044 125C418.038 125 418.033 125 418.028 125C418.023 125 418.018 125 418.013 125C418.008 125 418.003 125 417.998 125C417.993 125 417.988 125 417.983 125C417.978 125 417.973 125 417.968 125C417.963 125 417.958 125 417.953 125C417.948 125 417.943 125 417.938 125C417.933 125 417.928 125 417.923 125C417.918 125 417.913 125 417.908 125C417.903 125 417.898 125 417.893 125C417.888 125 417.883 125 417.879 125C417.874 125 417.869 125 417.864 125C417.859 125 417.854 125 417.849 125C417.844 125 417.839 125 417.834 125C417.829 125 417.824 125 417.819 125C417.814 125 417.809 125 417.804 125C417.799 125 417.794 125 417.789 125C417.784 125 417.779 125 417.774 125C417.769 125 417.764 125 417.759 125C417.754 125 417.75 125 417.745 125C417.74 125 417.735 125 417.73 125C417.725 125 417.72 125 417.715 125C417.71 125 417.705 125 417.7 125C417.695 125 417.69 125 417.685 125C417.68 125 417.676 125 417.671 125C417.666 125 417.661 125 417.656 125C417.651 125 417.646 125 417.641 125C417.636 125 417.631 125 417.626 125C417.621 125 417.617 125 417.612 125C417.607 125 417.602 125 417.597 125C417.592 125 417.587 125 417.582 125C417.577 125 417.572 125 417.568 125C417.563 125 417.558 125 417.553 125C417.548 125 417.543 125 417.538 125C417.533 125 417.528 125 417.523 125C417.519 125 417.514 125 417.509 125C417.504 125 417.499 125 417.494 125C417.489 125 417.484 125 417.48 125C417.475 125 417.47 125 417.465 125C417.46 125 417.455 125 417.45 125C417.446 125 417.441 125 417.436 125C417.431 125 417.426 125 417.421 125C417.416 125 417.411 125 417.407 125C417.402 125 417.397 125 417.392 125C417.387 125 417.382 125 417.378 125C417.373 125 417.368 125 417.363 125C417.358 125 417.353 125 417.349 125C417.344 125 417.339 125 417.334 125C417.329 125 417.324 125 417.32 125C417.315 125 417.31 125 417.305 125C417.3 125 417.295 125 417.291 125C417.286 125 417.281 125 417.276 125C417.271 125 417.266 125 417.262 125C417.257 125 417.252 125 417.247 125C417.242 125 417.238 125 417.233 125C417.228 125 417.223 125 417.218 125C417.214 125 417.209 125 417.204 125C417.199 125 417.194 125 417.19 125C417.185 125 417.18 125 417.175 125C417.17 125 417.166 125 417.161 125C417.156 125 417.151 125 417.146 125C417.142 125 417.137 125 417.132 125C417.127 125 417.123 125 417.118 125C417.113 125 417.108 125 417.104 125C417.099 125 417.094 125 417.089 125C417.084 125 417.08 125 417.075 125C417.07 125 417.065 125 417.061 125C417.056 125 417.051 125 417.046 125C417.042 125 417.037 125 417.032 125C417.027 125 417.023 125 417.018 125C417.013 125 417.008 125 417.004 125C416.999 125 416.994 125 416.989 125C416.985 125 416.98 125 416.975 125C416.97 125 416.966 125 416.961 125C416.956 125 416.951 125 416.947 125C416.942 125 416.937 125 416.933 125C416.928 125 416.923 125 416.918 125C416.914 125 416.909 125 416.904 125C416.9 125 416.895 125 416.89 125C416.885 125 416.881 125 416.876 125C416.871 125 416.867 125 416.862 125C416.857 125 416.852 125 416.848 125C416.843 125 416.838 125 416.834 125C416.829 125 416.824 125 416.82 125C416.815 125 416.81 125 416.806 125C416.801 125 416.796 125 416.791 125C416.787 125 416.782 125 416.777 125C416.773 125 416.768 125 416.763 125C416.759 125 416.754 125 416.749 125C416.745 125 416.74 125 416.735 125C416.731 125 416.726 125 416.721 125C416.717 125 416.712 125 416.707 125C416.703 125 416.698 125 416.693 125C416.689 125 416.684 125 416.679 125C416.675 125 416.67 125 416.665 125C416.661 125 416.656 125 416.652 125C416.647 125 416.642 125 416.638 125C416.633 125 416.628 125 416.624 125C416.619 125 416.614 125 416.61 125C416.605 125 416.6 125 416.596 125C416.591 125 416.587 125 416.582 125C416.577 125 416.573 125 416.568 125C416.563 125 416.559 125 416.554 125C416.55 125 416.545 125 416.54 125C416.536 125 416.531 125 416.527 125C416.522 125 416.517 125 416.513 125C416.508 125 416.503 125 416.499 125C416.494 125 416.49 125 416.485 125C416.48 125 416.476 125 416.471 125C416.467 125 416.462 125 416.458 125C416.453 125 416.448 125 416.444 125C416.439 125 416.435 125 416.43 125C416.425 125 416.421 125 416.416 125C416.412 125 416.407 125 416.403 125C416.398 125 416.393 125 416.389 125C416.384 125 416.38 125 416.375 125C416.371 125 416.366 125 416.361 125C416.357 125 416.352 125 416.348 125C416.343 125 416.339 125 416.334 125C416.329 125 416.325 125 416.32 125C416.316 125 416.311 125 416.307 125C416.302 125 416.298 125 416.293 125C416.289 125 416.284 125 416.279 125C416.275 125 416.27 125 416.266 125C416.261 125 416.257 125 416.252 125C416.248 125 416.243 125 416.239 125C416.234 125 416.23 125 416.225 125C416.221 125 416.216 125 416.212 125C416.207 125 416.202 125 416.198 125C416.193 125 416.189 125 416.184 125C416.18 125 416.175 125 416.171 125C416.166 125 416.162 125 416.157 125C416.153 125 416.148 125 416.144 125C416.139 125 416.135 125 416.13 125C416.126 125 416.121 125 416.117 125C416.112 125 416.108 125 416.103 125C416.099 125 416.094 125 416.09 125C416.085 125 416.081 125 416.076 125C416.072 125 416.067 125 416.063 125C416.059 125 416.054 125 416.05 125C416.045 125 416.041 125 416.036 125C416.032 125 416.027 125 416.023 125C416.018 125 416.014 125 416.009 125C416.005 125 416 125 415.996 125C415.992 125 415.987 125 415.983 125C415.978 125 415.974 125 415.969 125C415.965 125 415.96 125 415.956 125C415.951 125 415.947 125 415.943 125C415.938 125 415.934 125 415.929 125C415.925 125 415.92 125 415.916 125C415.912 125 415.907 125 415.903 125C415.898 125 415.894 125 415.889 125C415.885 125 415.881 125 415.876 125C415.872 125 415.867 125 415.863 125C415.858 125 415.854 125 415.85 125C415.845 125 415.841 125 415.836 125C415.832 125 415.828 125 415.823 125C415.819 125 415.814 125 415.81 125C415.805 125 415.801 125 415.797 125C415.792 125 415.788 125 415.784 125C415.779 125 415.775 125 415.77 125C415.766 125 415.762 125 415.757 125C415.753 125 415.748 125 415.744 125C415.74 125 415.735 125 415.731 125C415.726 125 415.722 125 415.718 125C415.713 125 415.709 125 415.705 125C415.7 125 415.696 125 415.691 125C415.687 125 415.683 125 415.678 125C415.674 125 415.67 125 415.665 125C415.661 125 415.657 125 415.652 125C415.648 125 415.643 125 415.639 125C415.635 125 415.63 125 415.626 125C415.622 125 415.617 125 415.613 125C415.609 125 415.604 125 415.6 125C415.596 125 415.591 125 415.587 125C415.583 125 415.578 125 415.574 125V131C415.578 131 415.583 131 415.587 131C415.591 131 415.596 131 415.6 131C415.604 131 415.609 131 415.613 131C415.617 131 415.622 131 415.626 131C415.63 131 415.635 131 415.639 131C415.643 131 415.648 131 415.652 131C415.657 131 415.661 131 415.665 131C415.67 131 415.674 131 415.678 131C415.683 131 415.687 131 415.691 131C415.696 131 415.7 131 415.705 131C415.709 131 415.713 131 415.718 131C415.722 131 415.726 131 415.731 131C415.735 131 415.74 131 415.744 131C415.748 131 415.753 131 415.757 131C415.762 131 415.766 131 415.77 131C415.775 131 415.779 131 415.784 131C415.788 131 415.792 131 415.797 131C415.801 131 415.805 131 415.81 131C415.814 131 415.819 131 415.823 131C415.828 131 415.832 131 415.836 131C415.841 131 415.845 131 415.85 131C415.854 131 415.858 131 415.863 131C415.867 131 415.872 131 415.876 131C415.881 131 415.885 131 415.889 131C415.894 131 415.898 131 415.903 131C415.907 131 415.912 131 415.916 131C415.92 131 415.925 131 415.929 131C415.934 131 415.938 131 415.943 131C415.947 131 415.951 131 415.956 131C415.96 131 415.965 131 415.969 131C415.974 131 415.978 131 415.983 131C415.987 131 415.992 131 415.996 131C416 131 416.005 131 416.009 131C416.014 131 416.018 131 416.023 131C416.027 131 416.032 131 416.036 131C416.041 131 416.045 131 416.05 131C416.054 131 416.059 131 416.063 131C416.067 131 416.072 131 416.076 131C416.081 131 416.085 131 416.09 131C416.094 131 416.099 131 416.103 131C416.108 131 416.112 131 416.117 131C416.121 131 416.126 131 416.13 131C416.135 131 416.139 131 416.144 131C416.148 131 416.153 131 416.157 131C416.162 131 416.166 131 416.171 131C416.175 131 416.18 131 416.184 131C416.189 131 416.193 131 416.198 131C416.202 131 416.207 131 416.212 131C416.216 131 416.221 131 416.225 131C416.23 131 416.234 131 416.239 131C416.243 131 416.248 131 416.252 131C416.257 131 416.261 131 416.266 131C416.27 131 416.275 131 416.279 131C416.284 131 416.289 131 416.293 131C416.298 131 416.302 131 416.307 131C416.311 131 416.316 131 416.32 131C416.325 131 416.329 131 416.334 131C416.339 131 416.343 131 416.348 131C416.352 131 416.357 131 416.361 131C416.366 131 416.371 131 416.375 131C416.38 131 416.384 131 416.389 131C416.393 131 416.398 131 416.403 131C416.407 131 416.412 131 416.416 131C416.421 131 416.425 131 416.43 131C416.435 131 416.439 131 416.444 131C416.448 131 416.453 131 416.458 131C416.462 131 416.467 131 416.471 131C416.476 131 416.48 131 416.485 131C416.49 131 416.494 131 416.499 131C416.503 131 416.508 131 416.513 131C416.517 131 416.522 131 416.527 131C416.531 131 416.536 131 416.54 131C416.545 131 416.55 131 416.554 131C416.559 131 416.563 131 416.568 131C416.573 131 416.577 131 416.582 131C416.587 131 416.591 131 416.596 131C416.6 131 416.605 131 416.61 131C416.614 131 416.619 131 416.624 131C416.628 131 416.633 131 416.638 131C416.642 131 416.647 131 416.652 131C416.656 131 416.661 131 416.665 131C416.67 131 416.675 131 416.679 131C416.684 131 416.689 131 416.693 131C416.698 131 416.703 131 416.707 131C416.712 131 416.717 131 416.721 131C416.726 131 416.731 131 416.735 131C416.74 131 416.745 131 416.749 131C416.754 131 416.759 131 416.763 131C416.768 131 416.773 131 416.777 131C416.782 131 416.787 131 416.791 131C416.796 131 416.801 131 416.806 131C416.81 131 416.815 131 416.82 131C416.824 131 416.829 131 416.834 131C416.838 131 416.843 131 416.848 131C416.852 131 416.857 131 416.862 131C416.867 131 416.871 131 416.876 131C416.881 131 416.885 131 416.89 131C416.895 131 416.9 131 416.904 131C416.909 131 416.914 131 416.918 131C416.923 131 416.928 131 416.933 131C416.937 131 416.942 131 416.947 131C416.951 131 416.956 131 416.961 131C416.966 131 416.97 131 416.975 131C416.98 131 416.985 131 416.989 131C416.994 131 416.999 131 417.004 131C417.008 131 417.013 131 417.018 131C417.023 131 417.027 131 417.032 131C417.037 131 417.042 131 417.046 131C417.051 131 417.056 131 417.061 131C417.065 131 417.07 131 417.075 131C417.08 131 417.084 131 417.089 131C417.094 131 417.099 131 417.104 131C417.108 131 417.113 131 417.118 131C417.123 131 417.127 131 417.132 131C417.137 131 417.142 131 417.146 131C417.151 131 417.156 131 417.161 131C417.166 131 417.17 131 417.175 131C417.18 131 417.185 131 417.19 131C417.194 131 417.199 131 417.204 131C417.209 131 417.214 131 417.218 131C417.223 131 417.228 131 417.233 131C417.238 131 417.242 131 417.247 131C417.252 131 417.257 131 417.262 131C417.266 131 417.271 131 417.276 131C417.281 131 417.286 131 417.291 131C417.295 131 417.3 131 417.305 131C417.31 131 417.315 131 417.32 131C417.324 131 417.329 131 417.334 131C417.339 131 417.344 131 417.349 131C417.353 131 417.358 131 417.363 131C417.368 131 417.373 131 417.378 131C417.382 131 417.387 131 417.392 131C417.397 131 417.402 131 417.407 131C417.411 131 417.416 131 417.421 131C417.426 131 417.431 131 417.436 131C417.441 131 417.446 131 417.45 131C417.455 131 417.46 131 417.465 131C417.47 131 417.475 131 417.48 131C417.484 131 417.489 131 417.494 131C417.499 131 417.504 131 417.509 131C417.514 131 417.519 131 417.523 131C417.528 131 417.533 131 417.538 131C417.543 131 417.548 131 417.553 131C417.558 131 417.563 131 417.568 131C417.572 131 417.577 131 417.582 131C417.587 131 417.592 131 417.597 131C417.602 131 417.607 131 417.612 131C417.617 131 417.621 131 417.626 131C417.631 131 417.636 131 417.641 131C417.646 131 417.651 131 417.656 131C417.661 131 417.666 131 417.671 131C417.676 131 417.68 131 417.685 131C417.69 131 417.695 131 417.7 131C417.705 131 417.71 131 417.715 131C417.72 131 417.725 131 417.73 131C417.735 131 417.74 131 417.745 131C417.75 131 417.754 131 417.759 131C417.764 131 417.769 131 417.774 131C417.779 131 417.784 131 417.789 131C417.794 131 417.799 131 417.804 131C417.809 131 417.814 131 417.819 131C417.824 131 417.829 131 417.834 131C417.839 131 417.844 131 417.849 131C417.854 131 417.859 131 417.864 131C417.869 131 417.874 131 417.879 131C417.883 131 417.888 131 417.893 131C417.898 131 417.903 131 417.908 131C417.913 131 417.918 131 417.923 131C417.928 131 417.933 131 417.938 131C417.943 131 417.948 131 417.953 131C417.958 131 417.963 131 417.968 131C417.973 131 417.978 131 417.983 131C417.988 131 417.993 131 417.998 131C418.003 131 418.008 131 418.013 131C418.018 131 418.023 131 418.028 131C418.033 131 418.038 131 418.044 131C418.049 131 418.054 131 418.059 131C418.064 131 418.069 131 418.074 131C418.079 131 418.084 131 418.089 131C418.094 131 418.099 131 418.104 131C418.109 131 418.114 131 418.119 131C418.124 131 418.129 131 418.134 131C418.139 131 418.144 131 418.149 131C418.154 131 418.159 131 418.164 131C418.169 131 418.174 131 418.18 131C418.185 131 418.19 131 418.195 131C418.2 131 418.205 131 418.21 131C418.215 131 418.22 131 418.225 131C418.23 131 418.235 131 418.24 131C418.245 131 418.25 131 418.256 131C418.261 131 418.266 131 418.271 131C418.276 131 418.281 131 418.286 131C418.291 131 418.296 131 418.301 131C418.306 131 418.311 131 418.317 131C418.322 131 418.327 131 418.332 131C418.337 131 418.342 131 418.347 131C418.352 131 418.357 131 418.362 131C418.367 131 418.373 131 418.378 131C418.383 131 418.388 131 418.393 131C418.398 131 418.403 131 418.408 131C418.413 131 418.419 131 418.424 131C418.429 131 418.434 131 418.439 131C418.444 131 418.449 131 418.454 131C418.46 131 418.465 131 418.47 131C418.475 131 418.48 131 418.485 131C418.49 131 418.496 131 418.501 131C418.506 131 418.511 131 418.516 131C418.521 131 418.526 131 418.532 131C418.537 131 418.542 131 418.547 131C418.552 131 418.557 131 418.562 131C418.568 131 418.573 131 418.578 131C418.583 131 418.588 131 418.593 131C418.599 131 418.604 131 418.609 131C418.614 131 418.619 131 418.624 131C418.63 131 418.635 131 418.64 131C418.645 131 418.65 131 418.655 131C418.661 131 418.666 131 418.671 131C418.676 131 418.681 131 418.686 131C418.692 131 418.697 131 418.702 131C418.707 131 418.712 131 418.718 131C418.723 131 418.728 131 418.733 131C418.738 131 418.744 131 418.749 131C418.754 131 418.759 131 418.764 131C418.77 131 418.775 131 418.78 131C418.785 131 418.79 131 418.796 131C418.801 131 418.806 131 418.811 131C418.816 131 418.822 131 418.827 131C418.832 131 418.837 131 418.843 131C418.848 131 418.853 131 418.858 131C418.863 131 418.869 131 418.874 131C418.879 131 418.884 131 418.89 131C418.895 131 418.9 131 418.905 131C418.911 131 418.916 131 418.921 131C418.926 131 418.932 131 418.937 131C418.942 131 418.947 131 418.953 131C418.958 131 418.963 131 418.968 131C418.974 131 418.979 131 418.984 131C418.989 131 418.995 131 419 131C419.005 131 419.01 131 419.016 131C419.021 131 419.026 131 419.032 131C419.037 131 419.042 131 419.047 131C419.053 131 419.058 131 419.063 131C419.068 131 419.074 131 419.079 131C419.084 131 419.09 131 419.095 131C419.1 131 419.105 131 419.111 131C419.116 131 419.121 131 419.127 131C419.132 131 419.137 131 419.142 131C419.148 131 419.153 131 419.158 131C419.164 131 419.169 131 419.174 131C419.18 131 419.185 131 419.19 131C419.196 131 419.201 131 419.206 131C419.211 131 419.217 131 419.222 131C419.227 131 419.233 131 419.238 131C419.243 131 419.249 131 419.254 131C419.259 131 419.265 131 419.27 131C419.275 131 419.281 131 419.286 131C419.291 131 419.297 131 419.302 131C419.307 131 419.313 131 419.318 131C419.323 131 419.329 131 419.334 131C419.339 131 419.345 131 419.35 131C419.355 131 419.361 131 419.366 131C419.371 131 419.377 131 419.382 131C419.388 131 419.393 131 419.398 131C419.404 131 419.409 131 419.414 131C419.42 131 419.425 131 419.43 131C419.436 131 419.441 131 419.447 131C419.452 131 419.457 131 419.463 131C419.468 131 419.473 131 419.479 131C419.484 131 419.49 131 419.495 131C419.5 131 419.506 131 419.511 131C419.517 131 419.522 131 419.527 131C419.533 131 419.538 131 419.544 131C419.549 131 419.554 131 419.56 131C419.565 131 419.57 131 419.576 131C419.581 131 419.587 131 419.592 131C419.598 131 419.603 131 419.608 131C419.614 131 419.619 131 419.625 131C419.63 131 419.635 131 419.641 131C419.646 131 419.652 131 419.657 131C419.663 131 419.668 131 419.673 131C419.679 131 419.684 131 419.69 131C419.695 131 419.701 131 419.706 131C419.711 131 419.717 131 419.722 131C419.728 131 419.733 131 419.739 131C419.744 131 419.749 131 419.755 131C419.76 131 419.766 131 419.771 131C419.777 131 419.782 131 419.788 131C419.793 131 419.799 131 419.804 131C419.809 131 419.815 131 419.82 131C419.826 131 419.831 131 419.837 131C419.842 131 419.848 131 419.853 131C419.859 131 419.864 131 419.87 131C419.875 131 419.881 131 419.886 131C419.891 131 419.897 131 419.902 131C419.908 131 419.913 131 419.919 131C419.924 131 419.93 131 419.935 131C419.941 131 419.946 131 419.952 131C419.957 131 419.963 131 419.968 131C419.974 131 419.979 131 419.985 131C419.99 131 419.996 131 420.001 131C420.007 131 420.012 131 420.018 131C420.023 131 420.029 131 420.034 131C420.04 131 420.045 131 420.051 131C420.056 131 420.062 131 420.068 131C420.073 131 420.079 131 420.084 131C420.09 131 420.095 131 420.101 131C420.106 131 420.112 131 420.117 131C420.123 131 420.128 131 420.134 131C420.139 131 420.145 131 420.15 131C420.156 131 420.162 131 420.167 131C420.173 131 420.178 131 420.184 131C420.189 131 420.195 131 420.2 131C420.206 131 420.211 131 420.217 131C420.223 131 420.228 131 420.234 131C420.239 131 420.245 131 420.25 131C420.256 131 420.262 131 420.267 131C420.273 131 420.278 131 420.284 131C420.289 131 420.295 131 420.301 131C420.306 131 420.312 131 420.317 131C420.323 131 420.328 131 420.334 131C420.34 131 420.345 131 420.351 131C420.356 131 420.362 131 420.368 131C420.373 131 420.379 131 420.384 131C420.39 131 420.395 131 420.401 131C420.407 131 420.412 131 420.418 131C420.423 131 420.429 131 420.435 131C420.44 131 420.446 131 420.452 131C420.457 131 420.463 131 420.468 131C420.474 131 420.48 131 420.485 131C420.491 131 420.496 131 420.502 131C420.508 131 420.513 131 420.519 131C420.525 131 420.53 131 420.536 131C420.541 131 420.547 131 420.553 131C420.558 131 420.564 131 420.57 131C420.575 131 420.581 131 420.587 131C420.592 131 420.598 131 420.604 131C420.609 131 420.615 131 420.62 131C420.626 131 420.632 131 420.637 131C420.643 131 420.649 131 420.654 131C420.66 131 420.666 131 420.671 131C420.677 131 420.683 131 420.688 131C420.694 131 420.7 131 420.705 131C420.711 131 420.717 131 420.722 131C420.728 131 420.734 131 420.739 131C420.745 131 420.751 131 420.756 131C420.762 131 420.768 131 420.773 131C420.779 131 420.785 131 420.791 131C420.796 131 420.802 131 420.808 131C420.813 131 420.819 131 420.825 131C420.83 131 420.836 131 420.842 131C420.847 131 420.853 131 420.859 131C420.865 131 420.87 131 420.876 131C420.882 131 420.887 131 420.893 131C420.899 131 420.905 131 420.91 131C420.916 131 420.922 131 420.927 131C420.933 131 420.939 131 420.945 131C420.95 131 420.956 131 420.962 131C420.967 131 420.973 131 420.979 131C420.985 131 420.99 131 420.996 131C421.002 131 421.008 131 421.013 131C421.019 131 421.025 131 421.031 131C421.036 131 421.042 131 421.048 131C421.054 131 421.059 131 421.065 131C421.071 131 421.077 131 421.082 131C421.088 131 421.094 131 421.1 131C421.105 131 421.111 131 421.117 131C421.123 131 421.128 131 421.134 131C421.14 131 421.146 131 421.152 131C421.157 131 421.163 131 421.169 131C421.175 131 421.18 131 421.186 131C421.192 131 421.198 131 421.203 131C421.209 131 421.215 131 421.221 131C421.227 131 421.232 131 421.238 131C421.244 131 421.25 131 421.256 131C421.261 131 421.267 131 421.273 131C421.279 131 421.285 131 421.29 131C421.296 131 421.302 131 421.308 131C421.314 131 421.319 131 421.325 131C421.331 131 421.337 131 421.343 131C421.348 131 421.354 131 421.36 131C421.366 131 421.372 131 421.378 131C421.383 131 421.389 131 421.395 131C421.401 131 421.407 131 421.413 131C421.418 131 421.424 131 421.43 131C421.436 131 421.442 131 421.448 131C421.453 131 421.459 131 421.465 131C421.471 131 421.477 131 421.483 131C421.488 131 421.494 131 421.5 131C421.506 131 421.512 131 421.518 131C421.523 131 421.529 131 421.535 131C421.541 131 421.547 131 421.553 131C421.559 131 421.565 131 421.57 131C421.576 131 421.582 131 421.588 131C421.594 131 421.6 131 421.606 131C421.611 131 421.617 131 421.623 131C421.629 131 421.635 131 421.641 131C421.647 131 421.653 131 421.658 131C421.664 131 421.67 131 421.676 131C421.682 131 421.688 131 421.694 131C421.7 131 421.706 131 421.712 131C421.717 131 421.723 131 421.729 131C421.735 131 421.741 131 421.747 131C421.753 131 421.759 131 421.765 131C421.771 131 421.776 131 421.782 131C421.788 131 421.794 131 421.8 131C421.806 131 421.812 131 421.818 131C421.824 131 421.83 131 421.836 131C421.842 131 421.847 131 421.853 131C421.859 131 421.865 131 421.871 131C421.877 131 421.883 131 421.889 131C421.895 131 421.901 131 421.907 131C421.913 131 421.919 131 421.925 131C421.931 131 421.936 131 421.942 131C421.948 131 421.954 131 421.96 131C421.966 131 421.972 131 421.978 131C421.984 131 421.99 131 421.996 131C422.002 131 422.008 131 422.014 131C422.02 131 422.026 131 422.032 131C422.038 131 422.044 131 422.05 131C422.056 131 422.062 131 422.068 131C422.074 131 422.08 131 422.086 131C422.091 131 422.097 131 422.103 131C422.109 131 422.115 131 422.121 131C422.127 131 422.133 131 422.139 131C422.145 131 422.151 131 422.157 131C422.163 131 422.169 131 422.175 131C422.181 131 422.187 131 422.193 131C422.199 131 422.205 131 422.211 131C422.217 131 422.223 131 422.229 131C422.235 131 422.241 131 422.247 131C422.253 131 422.259 131 422.265 131C422.271 131 422.277 131 422.284 131C422.29 131 422.296 131 422.302 131C422.308 131 422.314 131 422.32 131C422.326 131 422.332 131 422.338 131C422.344 131 422.35 131 422.356 131C422.362 131 422.368 131 422.374 131C422.38 131 422.386 131 422.392 131C422.398 131 422.404 131 422.41 131C422.416 131 422.422 131 422.428 131C422.434 131 422.44 131 422.447 131C422.453 131 422.459 131 422.465 131C422.471 131 422.477 131 422.483 131C422.489 131 422.495 131 422.501 131C422.507 131 422.513 131 422.519 131C422.525 131 422.531 131 422.538 131C422.544 131 422.55 131 422.556 131C422.562 131 422.568 131 422.574 131C422.58 131 422.586 131 422.592 131C422.598 131 422.604 131 422.611 131C422.617 131 422.623 131 422.629 131C422.635 131 422.641 131 422.647 131C422.653 131 422.659 131 422.665 131C422.672 131 422.678 131 422.684 131C422.69 131 422.696 131 422.702 131C422.708 131 422.714 131 422.72 131C422.726 131 422.733 131 422.739 131C422.745 131 422.751 131 422.757 131C422.763 131 422.769 131 422.775 131C422.782 131 422.788 131 422.794 131C422.8 131 422.806 131 422.812 131C422.818 131 422.825 131 422.831 131C422.837 131 422.843 131 422.849 131C422.855 131 422.861 131 422.868 131C422.874 131 422.88 131 422.886 131C422.892 131 422.898 131 422.904 131C422.911 131 422.917 131 422.923 131C422.929 131 422.935 131 422.941 131C422.948 131 422.954 131 422.96 131C422.966 131 422.972 131 422.978 131C422.985 131 422.991 131 422.997 131C423.003 131 423.009 131 423.015 131C423.022 131 423.028 131 423.034 131C423.04 131 423.046 131 423.052 131C423.059 131 423.065 131 423.071 131C423.077 131 423.083 131 423.09 131C423.096 131 423.102 131 423.108 131C423.114 131 423.121 131 423.127 131C423.133 131 423.139 131 423.145 131C423.152 131 423.158 131 423.164 131C423.17 131 423.176 131 423.183 131C423.189 131 423.195 131 423.201 131C423.207 131 423.214 131 423.22 131C423.226 131 423.232 131 423.239 131C423.245 131 423.251 131 423.257 131C423.264 131 423.27 131 423.276 131C423.282 131 423.288 131 423.295 131C423.301 131 423.307 131 423.313 131C423.32 131 423.326 131 423.332 131C423.338 131 423.345 131 423.351 131C423.357 131 423.363 131 423.37 131C423.376 131 423.382 131 423.388 131C423.395 131 423.401 131 423.407 131C423.413 131 423.42 131 423.426 131C423.432 131 423.438 131 423.445 131C423.451 131 423.457 131 423.464 131C423.47 131 423.476 131 423.482 131C423.489 131 423.495 131 423.501 131C423.507 131 423.514 131 423.52 131C423.526 131 423.533 131 423.539 131C423.545 131 423.551 131 423.558 131C423.564 131 423.57 131 423.577 131C423.583 131 423.589 131 423.595 131C423.602 131 423.608 131 423.614 131C423.621 131 423.627 131 423.633 131C423.64 131 423.646 131 423.652 131C423.659 131 423.665 131 423.671 131C423.677 131 423.684 131 423.69 131C423.696 131 423.703 131 423.709 131C423.715 131 423.722 131 423.728 131C423.734 131 423.741 131 423.747 131C423.753 131 423.76 131 423.766 131V125ZM415.574 125C415.57 125 415.566 125 415.562 125C415.557 125 415.553 125 415.549 125C415.545 125 415.541 125 415.537 125C415.532 125 415.528 125 415.524 125C415.52 125 415.516 125 415.512 125C415.507 125 415.503 125 415.499 125C415.495 125 415.491 125 415.487 125C415.483 125 415.479 125 415.474 125C415.47 125 415.466 125 415.462 125C415.458 125 415.454 125 415.45 125C415.445 125 415.441 125 415.437 125C415.433 125 415.429 125 415.425 125C415.421 125 415.417 125 415.412 125C415.408 125 415.404 125 415.4 125C415.396 125 415.392 125 415.388 125C415.384 125 415.38 125 415.376 125C415.371 125 415.367 125 415.363 125C415.359 125 415.355 125 415.351 125C415.347 125 415.343 125 415.339 125C415.335 125 415.33 125 415.326 125C415.322 125 415.318 125 415.314 125C415.31 125 415.306 125 415.302 125C415.298 125 415.294 125 415.29 125C415.286 125 415.281 125 415.277 125C415.273 125 415.269 125 415.265 125C415.261 125 415.257 125 415.253 125C415.249 125 415.245 125 415.241 125C415.237 125 415.233 125 415.229 125C415.225 125 415.22 125 415.216 125C415.212 125 415.208 125 415.204 125C415.2 125 415.196 125 415.192 125C415.188 125 415.184 125 415.18 125C415.176 125 415.172 125 415.168 125C415.164 125 415.16 125 415.156 125C415.152 125 415.148 125 415.144 125C415.14 125 415.136 125 415.132 125C415.128 125 415.124 125 415.12 125C415.115 125 415.111 125 415.107 125C415.103 125 415.099 125 415.095 125C415.091 125 415.087 125 415.083 125C415.079 125 415.075 125 415.071 125C415.067 125 415.063 125 415.059 125C415.055 125 415.051 125 415.047 125C415.043 125 415.039 125 415.035 125C415.031 125 415.027 125 415.023 125C415.019 125 415.015 125 415.011 125C415.007 125 415.003 125 414.999 125C414.995 125 414.991 125 414.988 125C414.984 125 414.98 125 414.976 125C414.972 125 414.968 125 414.964 125C414.96 125 414.956 125 414.952 125C414.948 125 414.944 125 414.94 125C414.936 125 414.932 125 414.928 125C414.924 125 414.92 125 414.916 125C414.912 125 414.908 125 414.904 125C414.9 125 414.896 125 414.892 125C414.888 125 414.884 125 414.881 125C414.877 125 414.873 125 414.869 125C414.865 125 414.861 125 414.857 125C414.853 125 414.849 125 414.845 125C414.841 125 414.837 125 414.833 125C414.829 125 414.825 125 414.822 125C414.818 125 414.814 125 414.81 125C414.806 125 414.802 125 414.798 125C414.794 125 414.79 125 414.786 125C414.782 125 414.778 125 414.775 125C414.771 125 414.767 125 414.763 125C414.759 125 414.755 125 414.751 125C414.747 125 414.743 125 414.739 125C414.735 125 414.732 125 414.728 125C414.724 125 414.72 125 414.716 125C414.712 125 414.708 125 414.704 125C414.7 125 414.697 125 414.693 125C414.689 125 414.685 125 414.681 125C414.677 125 414.673 125 414.669 125C414.666 125 414.662 125 414.658 125C414.654 125 414.65 125 414.646 125C414.642 125 414.639 125 414.635 125C414.631 125 414.627 125 414.623 125C414.619 125 414.615 125 414.612 125C414.608 125 414.604 125 414.6 125C414.596 125 414.592 125 414.588 125C414.585 125 414.581 125 414.577 125C414.573 125 414.569 125 414.565 125C414.562 125 414.558 125 414.554 125C414.55 125 414.546 125 414.542 125C414.539 125 414.535 125 414.531 125C414.527 125 414.523 125 414.519 125C414.516 125 414.512 125 414.508 125C414.504 125 414.5 125 414.496 125C414.493 125 414.489 125 414.485 125C414.481 125 414.477 125 414.474 125C414.47 125 414.466 125 414.462 125C414.458 125 414.455 125 414.451 125C414.447 125 414.443 125 414.439 125C414.436 125 414.432 125 414.428 125C414.424 125 414.42 125 414.417 125C414.413 125 414.409 125 414.405 125C414.401 125 414.398 125 414.394 125C414.39 125 414.386 125 414.383 125C414.379 125 414.375 125 414.371 125C414.367 125 414.364 125 414.36 125C414.356 125 414.352 125 414.349 125C414.345 125 414.341 125 414.337 125C414.334 125 414.33 125 414.326 125C414.322 125 414.319 125 414.315 125C414.311 125 414.307 125 414.304 125C414.3 125 414.296 125 414.292 125C414.289 125 414.285 125 414.281 125C414.277 125 414.274 125 414.27 125C414.266 125 414.262 125 414.259 125C414.255 125 414.251 125 414.248 125C414.244 125 414.24 125 414.236 125C414.233 125 414.229 125 414.225 125C414.221 125 414.218 125 414.214 125C414.21 125 414.207 125 414.203 125C414.199 125 414.195 125 414.192 125C414.188 125 414.184 125 414.181 125C414.177 125 414.173 125 414.169 125C414.166 125 414.162 125 414.158 125C414.155 125 414.151 125 414.147 125C414.144 125 414.14 125 414.136 125C414.133 125 414.129 125 414.125 125C414.121 125 414.118 125 414.114 125C414.11 125 414.107 125 414.103 125C414.099 125 414.096 125 414.092 125C414.088 125 414.085 125 414.081 125C414.077 125 414.074 125 414.07 125C414.066 125 414.063 125 414.059 125C414.055 125 414.052 125 414.048 125C414.044 125 414.041 125 414.037 125C414.033 125 414.03 125 414.026 125C414.022 125 414.019 125 414.015 125C414.011 125 414.008 125 414.004 125C414.001 125 413.997 125 413.993 125C413.99 125 413.986 125 413.982 125C413.979 125 413.975 125 413.971 125C413.968 125 413.964 125 413.961 125C413.957 125 413.953 125 413.95 125C413.946 125 413.942 125 413.939 125C413.935 125 413.932 125 413.928 125C413.924 125 413.921 125 413.917 125C413.914 125 413.91 125 413.906 125C413.903 125 413.899 125 413.896 125C413.892 125 413.888 125 413.885 125C413.881 125 413.877 125 413.874 125C413.87 125 413.867 125 413.863 125C413.86 125 413.856 125 413.852 125C413.849 125 413.845 125 413.842 125C413.838 125 413.834 125 413.831 125C413.827 125 413.824 125 413.82 125C413.817 125 413.813 125 413.809 125C413.806 125 413.802 125 413.799 125C413.795 125 413.792 125 413.788 125C413.784 125 413.781 125 413.777 125C413.774 125 413.77 125 413.767 125C413.763 125 413.759 125 413.756 125C413.752 125 413.749 125 413.745 125C413.742 125 413.738 125 413.735 125C413.731 125 413.728 125 413.724 125C413.72 125 413.717 125 413.713 125C413.71 125 413.706 125 413.703 125C413.699 125 413.696 125 413.692 125C413.689 125 413.685 125 413.682 125C413.678 125 413.675 125 413.671 125C413.667 125 413.664 125 413.66 125C413.657 125 413.653 125 413.65 125C413.646 125 413.643 125 413.639 125C413.636 125 413.632 125 413.629 125C413.625 125 413.622 125 413.618 125C413.615 125 413.611 125 413.608 125C413.604 125 413.601 125 413.597 125C413.594 125 413.59 125 413.587 125C413.583 125 413.58 125 413.576 125C413.573 125 413.569 125 413.566 125C413.562 125 413.559 125 413.556 125C413.552 125 413.549 125 413.545 125C413.542 125 413.538 125 413.535 125C413.531 125 413.528 125 413.524 125C413.521 125 413.517 125 413.514 125C413.51 125 413.507 125 413.503 125C413.5 125 413.497 125 413.493 125C413.49 125 413.486 125 413.483 125C413.479 125 413.476 125 413.472 125C413.469 125 413.465 125 413.462 125C413.459 125 413.455 125 413.452 125C413.448 125 413.445 125 413.441 125C413.438 125 413.435 125 413.431 125C413.428 125 413.424 125 413.421 125C413.417 125 413.414 125 413.411 125C413.407 125 413.404 125 413.4 125C413.397 125 413.393 125 413.39 125C413.387 125 413.383 125 413.38 125C413.376 125 413.373 125 413.37 125C413.366 125 413.363 125 413.359 125C413.356 125 413.352 125 413.349 125C413.346 125 413.342 125 413.339 125C413.335 125 413.332 125 413.329 125C413.325 125 413.322 125 413.319 125C413.315 125 413.312 125 413.308 125C413.305 125 413.302 125 413.298 125C413.295 125 413.291 125 413.288 125C413.285 125 413.281 125 413.278 125C413.275 125 413.271 125 413.268 125C413.264 125 413.261 125 413.258 125C413.254 125 413.251 125 413.248 125C413.244 125 413.241 125 413.238 125C413.234 125 413.231 125 413.228 125C413.224 125 413.221 125 413.217 125C413.214 125 413.211 125 413.207 125C413.204 125 413.201 125 413.197 125C413.194 125 413.191 125 413.187 125C413.184 125 413.181 125 413.177 125C413.174 125 413.171 125 413.167 125C413.164 125 413.161 125 413.157 125C413.154 125 413.151 125 413.147 125C413.144 125 413.141 125 413.137 125C413.134 125 413.131 125 413.127 125C413.124 125 413.121 125 413.118 125C413.114 125 413.111 125 413.108 125C413.104 125 413.101 125 413.098 125C413.094 125 413.091 125 413.088 125C413.084 125 413.081 125 413.078 125C413.075 125 413.071 125 413.068 125C413.065 125 413.061 125 413.058 125C413.055 125 413.052 125 413.048 125C413.045 125 413.042 125 413.038 125C413.035 125 413.032 125 413.029 125C413.025 125 413.022 125 413.019 125C413.015 125 413.012 125 413.009 125C413.006 125 413.002 125 412.999 125C412.996 125 412.993 125 412.989 125C412.986 125 412.983 125 412.98 125C412.976 125 412.973 125 412.97 125C412.967 125 412.963 125 412.96 125C412.957 125 412.954 125 412.95 125C412.947 125 412.944 125 412.941 125C412.937 125 412.934 125 412.931 125C412.928 125 412.924 125 412.921 125C412.918 125 412.915 125 412.912 125C412.908 125 412.905 125 412.902 125C412.899 125 412.895 125 412.892 125C412.889 125 412.886 125 412.882 125C412.879 125 412.876 125 412.873 125C412.87 125 412.866 125 412.863 125C412.86 125 412.857 125 412.854 125C412.85 125 412.847 125 412.844 125C412.841 125 412.838 125 412.834 125C412.831 125 412.828 125 412.825 125C412.822 125 412.818 125 412.815 125C412.812 125 412.809 125 412.806 125C412.802 125 412.799 125 412.796 125C412.793 125 412.79 125 412.787 125C412.783 125 412.78 125 412.777 125C412.774 125 412.771 125 412.768 125C412.764 125 412.761 125 412.758 125C412.755 125 412.752 125 412.749 125C412.745 125 412.742 125 412.739 125C412.736 125 412.733 125 412.73 125C412.726 125 412.723 125 412.72 125C412.717 125 412.714 125 412.711 125C412.707 125 412.704 125 412.701 125C412.698 125 412.695 125 412.692 125C412.689 125 412.686 125 412.682 125C412.679 125 412.676 125 412.673 125C412.67 125 412.667 125 412.664 125C412.66 125 412.657 125 412.654 125C412.651 125 412.648 125 412.645 125C412.642 125 412.639 125 412.635 125C412.632 125 412.629 125 412.626 125C412.623 125 412.62 125 412.617 125C412.614 125 412.611 125 412.608 125C412.604 125 412.601 125 412.598 125C412.595 125 412.592 125 412.589 125C412.586 125 412.583 125 412.58 125C412.577 125 412.573 125 412.57 125C412.567 125 412.564 125 412.561 125C412.558 125 412.555 125 412.552 125C412.549 125 412.546 125 412.543 125C412.54 125 412.536 125 412.533 125C412.53 125 412.527 125 412.524 125C412.521 125 412.518 125 412.515 125C412.512 125 412.509 125 412.506 125C412.503 125 412.5 125 412.497 125C412.494 125 412.49 125 412.487 125C412.484 125 412.481 125 412.478 125C412.475 125 412.472 125 412.469 125C412.466 125 412.463 125 412.46 125C412.457 125 412.454 125 412.451 125C412.448 125 412.445 125 412.442 125C412.439 125 412.436 125 412.433 125C412.43 125 412.427 125 412.424 125C412.421 125 412.418 125 412.415 125C412.411 125 412.408 125 412.405 125C412.402 125 412.399 125 412.396 125C412.393 125 412.39 125 412.387 125C412.384 125 412.381 125 412.378 125C412.375 125 412.372 125 412.369 125C412.366 125 412.363 125 412.36 125C412.357 125 412.354 125 412.351 125C412.348 125 412.345 125 412.342 125C412.339 125 412.336 125 412.333 125C412.33 125 412.327 125 412.324 125C412.321 125 412.318 125 412.316 125C412.313 125 412.31 125 412.307 125C412.304 125 412.301 125 412.298 125C412.295 125 412.292 125 412.289 125C412.286 125 412.283 125 412.28 125C412.277 125 412.274 125 412.271 125C412.268 125 412.265 125 412.262 125C412.259 125 412.256 125 412.253 125C412.25 125 412.247 125 412.244 125C412.241 125 412.238 125 412.236 125C412.233 125 412.23 125 412.227 125C412.224 125 412.221 125 412.218 125C412.215 125 412.212 125 412.209 125C412.206 125 412.203 125 412.2 125C412.197 125 412.194 125 412.192 125C412.189 125 412.186 125 412.183 125C412.18 125 412.177 125 412.174 125C412.171 125 412.168 125 412.165 125C412.162 125 412.159 125 412.157 125C412.154 125 412.151 125 412.148 125C412.145 125 412.142 125 412.139 125C412.136 125 412.133 125 412.13 125C412.127 125 412.125 125 412.122 125C412.119 125 412.116 125 412.113 125C412.11 125 412.107 125 412.104 125C412.101 125 412.099 125 412.096 125C412.093 125 412.09 125 412.087 125C412.084 125 412.081 125 412.078 125C412.076 125 412.073 125 412.07 125C412.067 125 412.064 125 412.061 125C412.058 125 412.056 125 412.053 125C412.05 125 412.047 125 412.044 125C412.041 125 412.038 125 412.036 125C412.033 125 412.03 125 412.027 125C412.024 125 412.021 125 412.018 125C412.016 125 412.013 125 412.01 125C412.007 125 412.004 125 412.001 125C411.999 125 411.996 125 411.993 125C411.99 125 411.987 125 411.984 125C411.982 125 411.979 125 411.976 125C411.973 125 411.97 125 411.967 125C411.965 125 411.962 125 411.959 125C411.956 125 411.953 125 411.95 125C411.948 125 411.945 125 411.942 125C411.939 125 411.936 125 411.934 125C411.931 125 411.928 125 411.925 125C411.922 125 411.92 125 411.917 125C411.914 125 411.911 125 411.908 125C411.906 125 411.903 125 411.9 125C411.897 125 411.894 125 411.892 125C411.889 125 411.886 125 411.883 125C411.88 125 411.878 125 411.875 125C411.872 125 411.869 125 411.867 125C411.864 125 411.861 125 411.858 125C411.855 125 411.853 125 411.85 125C411.847 125 411.844 125 411.842 125C411.839 125 411.836 125 411.833 125C411.831 125 411.828 125 411.825 125C411.822 125 411.82 125 411.817 125C411.814 125 411.811 125 411.809 125C411.806 125 411.803 125 411.8 125C411.798 125 411.795 125 411.792 125C411.789 125 411.787 125 411.784 125C411.781 125 411.778 125 411.776 125C411.773 125 411.77 125 411.768 125C411.765 125 411.762 125 411.759 125C411.757 125 411.754 125 411.751 125C411.748 125 411.746 125 411.743 125C411.74 125 411.738 125 411.735 125C411.732 125 411.729 125 411.727 125C411.724 125 411.721 125 411.719 125C411.716 125 411.713 125 411.71 125C411.708 125 411.705 125 411.702 125C411.7 125 411.697 125 411.694 125C411.692 125 411.689 125 411.686 125C411.684 125 411.681 125 411.678 125C411.675 125 411.673 125 411.67 125C411.667 125 411.665 125 411.662 125C411.659 125 411.657 125 411.654 125C411.651 125 411.649 125 411.646 125C411.643 125 411.641 125 411.638 125C411.635 125 411.633 125 411.63 125C411.627 125 411.625 125 411.622 125C411.619 125 411.617 125 411.614 125C411.611 125 411.609 125 411.606 125C411.603 125 411.601 125 411.598 125C411.595 125 411.593 125 411.59 125C411.588 125 411.585 125 411.582 125C411.58 125 411.577 125 411.574 125C411.572 125 411.569 125 411.566 125C411.564 125 411.561 125 411.559 125C411.556 125 411.553 125 411.551 125C411.548 125 411.545 125 411.543 125C411.54 125 411.538 125 411.535 125C411.532 125 411.53 125 411.527 125C411.525 125 411.522 125 411.519 125C411.517 125 411.514 125 411.512 125C411.509 125 411.506 125 411.504 125C411.501 125 411.498 125 411.496 125C411.493 125 411.491 125 411.488 125C411.486 125 411.483 125 411.48 125C411.478 125 411.475 125 411.473 125C411.47 125 411.467 125 411.465 125C411.462 125 411.46 125 411.457 125C411.455 125 411.452 125 411.449 125C411.447 125 411.444 125 411.442 125C411.439 125 411.437 125 411.434 125C411.431 125 411.429 125 411.426 125C411.424 125 411.421 125 411.419 125C411.416 125 411.413 125 411.411 125C411.408 125 411.406 125 411.403 125C411.401 125 411.398 125 411.396 125C411.393 125 411.391 125 411.388 125C411.385 125 411.383 125 411.38 125C411.378 125 411.375 125 411.373 125C411.37 125 411.368 125 411.365 125C411.363 125 411.36 125 411.358 125C411.355 125 411.353 125 411.35 125C411.347 125 411.345 125 411.342 125C411.34 125 411.337 125 411.335 125C411.332 125 411.33 125 411.327 125C411.325 125 411.322 125 411.32 125C411.317 125 411.315 125 411.312 125C411.31 125 411.307 125 411.305 125C411.302 125 411.3 125 411.297 125C411.295 125 411.292 125 411.29 125C411.287 125 411.285 125 411.282 125C411.28 125 411.277 125 411.275 125C411.272 125 411.27 125 411.268 125C411.265 125 411.263 125 411.26 125C411.258 125 411.255 125 411.253 125C411.25 125 411.248 125 411.245 125C411.243 125 411.24 125 411.238 125C411.235 125 411.233 125 411.23 125C411.228 125 411.226 125 411.223 125C411.221 125 411.218 125 411.216 125C411.213 125 411.211 125 411.208 125C411.206 125 411.203 125 411.201 125C411.199 125 411.196 125 411.194 125C411.191 125 411.189 125 411.186 125C411.184 125 411.182 125 411.179 125C411.177 125 411.174 125 411.172 125C411.169 125 411.167 125 411.165 125C411.162 125 411.16 125 411.157 125C411.155 125 411.152 125 411.15 125C411.148 125 411.145 125 411.143 125C411.14 125 411.138 125 411.136 125C411.133 125 411.131 125 411.128 125C411.126 125 411.123 125 411.121 125C411.119 125 411.116 125 411.114 125C411.111 125 411.109 125 411.107 125C411.104 125 411.102 125 411.1 125C411.097 125 411.095 125 411.092 125C411.09 125 411.088 125 411.085 125C411.083 125 411.08 125 411.078 125C411.076 125 411.073 125 411.071 125C411.069 125 411.066 125 411.064 125C411.061 125 411.059 125 411.057 125C411.054 125 411.052 125 411.05 125C411.047 125 411.045 125 411.043 125C411.04 125 411.038 125 411.036 125C411.033 125 411.031 125 411.028 125C411.026 125 411.024 125 411.021 125C411.019 125 411.017 125 411.014 125C411.012 125 411.01 125 411.007 125C411.005 125 411.003 125 411 125C410.998 125 410.996 125 410.993 125C410.991 125 410.989 125 410.986 125C410.984 125 410.982 125 410.979 125C410.977 125 410.975 125 410.972 125C410.97 125 410.968 125 410.965 125C410.963 125 410.961 125 410.959 125C410.956 125 410.954 125 410.952 125C410.949 125 410.947 125 410.945 125C410.942 125 410.94 125 410.938 125C410.935 125 410.933 125 410.931 125C410.929 125 410.926 125 410.924 125C410.922 125 410.919 125 410.917 125C410.915 125 410.913 125 410.91 125C410.908 125 410.906 125 410.903 125C410.901 125 410.899 125 410.897 125C410.894 125 410.892 125 410.89 125C410.887 125 410.885 125 410.883 125C410.881 125 410.878 125 410.876 125C410.874 125 410.872 125 410.869 125C410.867 125 410.865 125 410.863 125C410.86 125 410.858 125 410.856 125C410.854 125 410.851 125 410.849 125C410.847 125 410.845 125 410.842 125C410.84 125 410.838 125 410.836 125C410.833 125 410.831 125 410.829 125C410.827 125 410.824 125 410.822 125C410.82 125 410.818 125 410.816 125C410.813 125 410.811 125 410.809 125C410.807 125 410.804 125 410.802 125C410.8 125 410.798 125 410.795 125C410.793 125 410.791 125 410.789 125C410.787 125 410.784 125 410.782 125C410.78 125 410.778 125 410.776 125C410.773 125 410.771 125 410.769 125C410.767 125 410.765 125 410.762 125C410.76 125 410.758 125 410.756 125C410.754 125 410.751 125 410.749 125C410.747 125 410.745 125 410.743 125C410.74 125 410.738 125 410.736 125C410.734 125 410.732 125 410.73 125C410.727 125 410.725 125 410.723 125C410.721 125 410.719 125 410.717 125C410.714 125 410.712 125 410.71 125V131C410.712 131 410.714 131 410.717 131C410.719 131 410.721 131 410.723 131C410.725 131 410.727 131 410.73 131C410.732 131 410.734 131 410.736 131C410.738 131 410.74 131 410.743 131C410.745 131 410.747 131 410.749 131C410.751 131 410.754 131 410.756 131C410.758 131 410.76 131 410.762 131C410.765 131 410.767 131 410.769 131C410.771 131 410.773 131 410.776 131C410.778 131 410.78 131 410.782 131C410.784 131 410.787 131 410.789 131C410.791 131 410.793 131 410.795 131C410.798 131 410.8 131 410.802 131C410.804 131 410.807 131 410.809 131C410.811 131 410.813 131 410.816 131C410.818 131 410.82 131 410.822 131C410.824 131 410.827 131 410.829 131C410.831 131 410.833 131 410.836 131C410.838 131 410.84 131 410.842 131C410.845 131 410.847 131 410.849 131C410.851 131 410.854 131 410.856 131C410.858 131 410.86 131 410.863 131C410.865 131 410.867 131 410.869 131C410.872 131 410.874 131 410.876 131C410.878 131 410.881 131 410.883 131C410.885 131 410.887 131 410.89 131C410.892 131 410.894 131 410.897 131C410.899 131 410.901 131 410.903 131C410.906 131 410.908 131 410.91 131C410.913 131 410.915 131 410.917 131C410.919 131 410.922 131 410.924 131C410.926 131 410.929 131 410.931 131C410.933 131 410.935 131 410.938 131C410.94 131 410.942 131 410.945 131C410.947 131 410.949 131 410.952 131C410.954 131 410.956 131 410.959 131C410.961 131 410.963 131 410.965 131C410.968 131 410.97 131 410.972 131C410.975 131 410.977 131 410.979 131C410.982 131 410.984 131 410.986 131C410.989 131 410.991 131 410.993 131C410.996 131 410.998 131 411 131C411.003 131 411.005 131 411.007 131C411.01 131 411.012 131 411.014 131C411.017 131 411.019 131 411.021 131C411.024 131 411.026 131 411.028 131C411.031 131 411.033 131 411.036 131C411.038 131 411.04 131 411.043 131C411.045 131 411.047 131 411.05 131C411.052 131 411.054 131 411.057 131C411.059 131 411.061 131 411.064 131C411.066 131 411.069 131 411.071 131C411.073 131 411.076 131 411.078 131C411.08 131 411.083 131 411.085 131C411.088 131 411.09 131 411.092 131C411.095 131 411.097 131 411.1 131C411.102 131 411.104 131 411.107 131C411.109 131 411.111 131 411.114 131C411.116 131 411.119 131 411.121 131C411.123 131 411.126 131 411.128 131C411.131 131 411.133 131 411.136 131C411.138 131 411.14 131 411.143 131C411.145 131 411.148 131 411.15 131C411.152 131 411.155 131 411.157 131C411.16 131 411.162 131 411.165 131C411.167 131 411.169 131 411.172 131C411.174 131 411.177 131 411.179 131C411.182 131 411.184 131 411.186 131C411.189 131 411.191 131 411.194 131C411.196 131 411.199 131 411.201 131C411.203 131 411.206 131 411.208 131C411.211 131 411.213 131 411.216 131C411.218 131 411.221 131 411.223 131C411.226 131 411.228 131 411.23 131C411.233 131 411.235 131 411.238 131C411.24 131 411.243 131 411.245 131C411.248 131 411.25 131 411.253 131C411.255 131 411.258 131 411.26 131C411.263 131 411.265 131 411.268 131C411.27 131 411.272 131 411.275 131C411.277 131 411.28 131 411.282 131C411.285 131 411.287 131 411.29 131C411.292 131 411.295 131 411.297 131C411.3 131 411.302 131 411.305 131C411.307 131 411.31 131 411.312 131C411.315 131 411.317 131 411.32 131C411.322 131 411.325 131 411.327 131C411.33 131 411.332 131 411.335 131C411.337 131 411.34 131 411.342 131C411.345 131 411.347 131 411.35 131C411.353 131 411.355 131 411.358 131C411.36 131 411.363 131 411.365 131C411.368 131 411.37 131 411.373 131C411.375 131 411.378 131 411.38 131C411.383 131 411.385 131 411.388 131C411.391 131 411.393 131 411.396 131C411.398 131 411.401 131 411.403 131C411.406 131 411.408 131 411.411 131C411.413 131 411.416 131 411.419 131C411.421 131 411.424 131 411.426 131C411.429 131 411.431 131 411.434 131C411.437 131 411.439 131 411.442 131C411.444 131 411.447 131 411.449 131C411.452 131 411.455 131 411.457 131C411.46 131 411.462 131 411.465 131C411.467 131 411.47 131 411.473 131C411.475 131 411.478 131 411.48 131C411.483 131 411.486 131 411.488 131C411.491 131 411.493 131 411.496 131C411.498 131 411.501 131 411.504 131C411.506 131 411.509 131 411.512 131C411.514 131 411.517 131 411.519 131C411.522 131 411.525 131 411.527 131C411.53 131 411.532 131 411.535 131C411.538 131 411.54 131 411.543 131C411.545 131 411.548 131 411.551 131C411.553 131 411.556 131 411.559 131C411.561 131 411.564 131 411.566 131C411.569 131 411.572 131 411.574 131C411.577 131 411.58 131 411.582 131C411.585 131 411.588 131 411.59 131C411.593 131 411.595 131 411.598 131C411.601 131 411.603 131 411.606 131C411.609 131 411.611 131 411.614 131C411.617 131 411.619 131 411.622 131C411.625 131 411.627 131 411.63 131C411.633 131 411.635 131 411.638 131C411.641 131 411.643 131 411.646 131C411.649 131 411.651 131 411.654 131C411.657 131 411.659 131 411.662 131C411.665 131 411.667 131 411.67 131C411.673 131 411.675 131 411.678 131C411.681 131 411.684 131 411.686 131C411.689 131 411.692 131 411.694 131C411.697 131 411.7 131 411.702 131C411.705 131 411.708 131 411.71 131C411.713 131 411.716 131 411.719 131C411.721 131 411.724 131 411.727 131C411.729 131 411.732 131 411.735 131C411.738 131 411.74 131 411.743 131C411.746 131 411.748 131 411.751 131C411.754 131 411.757 131 411.759 131C411.762 131 411.765 131 411.768 131C411.77 131 411.773 131 411.776 131C411.778 131 411.781 131 411.784 131C411.787 131 411.789 131 411.792 131C411.795 131 411.798 131 411.8 131C411.803 131 411.806 131 411.809 131C411.811 131 411.814 131 411.817 131C411.82 131 411.822 131 411.825 131C411.828 131 411.831 131 411.833 131C411.836 131 411.839 131 411.842 131C411.844 131 411.847 131 411.85 131C411.853 131 411.855 131 411.858 131C411.861 131 411.864 131 411.867 131C411.869 131 411.872 131 411.875 131C411.878 131 411.88 131 411.883 131C411.886 131 411.889 131 411.892 131C411.894 131 411.897 131 411.9 131C411.903 131 411.906 131 411.908 131C411.911 131 411.914 131 411.917 131C411.92 131 411.922 131 411.925 131C411.928 131 411.931 131 411.934 131C411.936 131 411.939 131 411.942 131C411.945 131 411.948 131 411.95 131C411.953 131 411.956 131 411.959 131C411.962 131 411.965 131 411.967 131C411.97 131 411.973 131 411.976 131C411.979 131 411.982 131 411.984 131C411.987 131 411.99 131 411.993 131C411.996 131 411.999 131 412.001 131C412.004 131 412.007 131 412.01 131C412.013 131 412.016 131 412.018 131C412.021 131 412.024 131 412.027 131C412.03 131 412.033 131 412.036 131C412.038 131 412.041 131 412.044 131C412.047 131 412.05 131 412.053 131C412.056 131 412.058 131 412.061 131C412.064 131 412.067 131 412.07 131C412.073 131 412.076 131 412.078 131C412.081 131 412.084 131 412.087 131C412.09 131 412.093 131 412.096 131C412.099 131 412.101 131 412.104 131C412.107 131 412.11 131 412.113 131C412.116 131 412.119 131 412.122 131C412.125 131 412.127 131 412.13 131C412.133 131 412.136 131 412.139 131C412.142 131 412.145 131 412.148 131C412.151 131 412.154 131 412.157 131C412.159 131 412.162 131 412.165 131C412.168 131 412.171 131 412.174 131C412.177 131 412.18 131 412.183 131C412.186 131 412.189 131 412.192 131C412.194 131 412.197 131 412.2 131C412.203 131 412.206 131 412.209 131C412.212 131 412.215 131 412.218 131C412.221 131 412.224 131 412.227 131C412.23 131 412.233 131 412.236 131C412.238 131 412.241 131 412.244 131C412.247 131 412.25 131 412.253 131C412.256 131 412.259 131 412.262 131C412.265 131 412.268 131 412.271 131C412.274 131 412.277 131 412.28 131C412.283 131 412.286 131 412.289 131C412.292 131 412.295 131 412.298 131C412.301 131 412.304 131 412.307 131C412.31 131 412.313 131 412.316 131C412.318 131 412.321 131 412.324 131C412.327 131 412.33 131 412.333 131C412.336 131 412.339 131 412.342 131C412.345 131 412.348 131 412.351 131C412.354 131 412.357 131 412.36 131C412.363 131 412.366 131 412.369 131C412.372 131 412.375 131 412.378 131C412.381 131 412.384 131 412.387 131C412.39 131 412.393 131 412.396 131C412.399 131 412.402 131 412.405 131C412.408 131 412.411 131 412.415 131C412.418 131 412.421 131 412.424 131C412.427 131 412.43 131 412.433 131C412.436 131 412.439 131 412.442 131C412.445 131 412.448 131 412.451 131C412.454 131 412.457 131 412.46 131C412.463 131 412.466 131 412.469 131C412.472 131 412.475 131 412.478 131C412.481 131 412.484 131 412.487 131C412.49 131 412.494 131 412.497 131C412.5 131 412.503 131 412.506 131C412.509 131 412.512 131 412.515 131C412.518 131 412.521 131 412.524 131C412.527 131 412.53 131 412.533 131C412.536 131 412.54 131 412.543 131C412.546 131 412.549 131 412.552 131C412.555 131 412.558 131 412.561 131C412.564 131 412.567 131 412.57 131C412.573 131 412.577 131 412.58 131C412.583 131 412.586 131 412.589 131C412.592 131 412.595 131 412.598 131C412.601 131 412.604 131 412.608 131C412.611 131 412.614 131 412.617 131C412.62 131 412.623 131 412.626 131C412.629 131 412.632 131 412.635 131C412.639 131 412.642 131 412.645 131C412.648 131 412.651 131 412.654 131C412.657 131 412.66 131 412.664 131C412.667 131 412.67 131 412.673 131C412.676 131 412.679 131 412.682 131C412.686 131 412.689 131 412.692 131C412.695 131 412.698 131 412.701 131C412.704 131 412.707 131 412.711 131C412.714 131 412.717 131 412.72 131C412.723 131 412.726 131 412.73 131C412.733 131 412.736 131 412.739 131C412.742 131 412.745 131 412.749 131C412.752 131 412.755 131 412.758 131C412.761 131 412.764 131 412.768 131C412.771 131 412.774 131 412.777 131C412.78 131 412.783 131 412.787 131C412.79 131 412.793 131 412.796 131C412.799 131 412.802 131 412.806 131C412.809 131 412.812 131 412.815 131C412.818 131 412.822 131 412.825 131C412.828 131 412.831 131 412.834 131C412.838 131 412.841 131 412.844 131C412.847 131 412.85 131 412.854 131C412.857 131 412.86 131 412.863 131C412.866 131 412.87 131 412.873 131C412.876 131 412.879 131 412.882 131C412.886 131 412.889 131 412.892 131C412.895 131 412.899 131 412.902 131C412.905 131 412.908 131 412.912 131C412.915 131 412.918 131 412.921 131C412.924 131 412.928 131 412.931 131C412.934 131 412.937 131 412.941 131C412.944 131 412.947 131 412.95 131C412.954 131 412.957 131 412.96 131C412.963 131 412.967 131 412.97 131C412.973 131 412.976 131 412.98 131C412.983 131 412.986 131 412.989 131C412.993 131 412.996 131 412.999 131C413.002 131 413.006 131 413.009 131C413.012 131 413.015 131 413.019 131C413.022 131 413.025 131 413.029 131C413.032 131 413.035 131 413.038 131C413.042 131 413.045 131 413.048 131C413.052 131 413.055 131 413.058 131C413.061 131 413.065 131 413.068 131C413.071 131 413.075 131 413.078 131C413.081 131 413.084 131 413.088 131C413.091 131 413.094 131 413.098 131C413.101 131 413.104 131 413.108 131C413.111 131 413.114 131 413.118 131C413.121 131 413.124 131 413.127 131C413.131 131 413.134 131 413.137 131C413.141 131 413.144 131 413.147 131C413.151 131 413.154 131 413.157 131C413.161 131 413.164 131 413.167 131C413.171 131 413.174 131 413.177 131C413.181 131 413.184 131 413.187 131C413.191 131 413.194 131 413.197 131C413.201 131 413.204 131 413.207 131C413.211 131 413.214 131 413.217 131C413.221 131 413.224 131 413.228 131C413.231 131 413.234 131 413.238 131C413.241 131 413.244 131 413.248 131C413.251 131 413.254 131 413.258 131C413.261 131 413.264 131 413.268 131C413.271 131 413.275 131 413.278 131C413.281 131 413.285 131 413.288 131C413.291 131 413.295 131 413.298 131C413.302 131 413.305 131 413.308 131C413.312 131 413.315 131 413.319 131C413.322 131 413.325 131 413.329 131C413.332 131 413.335 131 413.339 131C413.342 131 413.346 131 413.349 131C413.352 131 413.356 131 413.359 131C413.363 131 413.366 131 413.37 131C413.373 131 413.376 131 413.38 131C413.383 131 413.387 131 413.39 131C413.393 131 413.397 131 413.4 131C413.404 131 413.407 131 413.411 131C413.414 131 413.417 131 413.421 131C413.424 131 413.428 131 413.431 131C413.435 131 413.438 131 413.441 131C413.445 131 413.448 131 413.452 131C413.455 131 413.459 131 413.462 131C413.465 131 413.469 131 413.472 131C413.476 131 413.479 131 413.483 131C413.486 131 413.49 131 413.493 131C413.497 131 413.5 131 413.503 131C413.507 131 413.51 131 413.514 131C413.517 131 413.521 131 413.524 131C413.528 131 413.531 131 413.535 131C413.538 131 413.542 131 413.545 131C413.549 131 413.552 131 413.556 131C413.559 131 413.562 131 413.566 131C413.569 131 413.573 131 413.576 131C413.58 131 413.583 131 413.587 131C413.59 131 413.594 131 413.597 131C413.601 131 413.604 131 413.608 131C413.611 131 413.615 131 413.618 131C413.622 131 413.625 131 413.629 131C413.632 131 413.636 131 413.639 131C413.643 131 413.646 131 413.65 131C413.653 131 413.657 131 413.66 131C413.664 131 413.667 131 413.671 131C413.675 131 413.678 131 413.682 131C413.685 131 413.689 131 413.692 131C413.696 131 413.699 131 413.703 131C413.706 131 413.71 131 413.713 131C413.717 131 413.72 131 413.724 131C413.728 131 413.731 131 413.735 131C413.738 131 413.742 131 413.745 131C413.749 131 413.752 131 413.756 131C413.759 131 413.763 131 413.767 131C413.77 131 413.774 131 413.777 131C413.781 131 413.784 131 413.788 131C413.792 131 413.795 131 413.799 131C413.802 131 413.806 131 413.809 131C413.813 131 413.817 131 413.82 131C413.824 131 413.827 131 413.831 131C413.834 131 413.838 131 413.842 131C413.845 131 413.849 131 413.852 131C413.856 131 413.86 131 413.863 131C413.867 131 413.87 131 413.874 131C413.877 131 413.881 131 413.885 131C413.888 131 413.892 131 413.896 131C413.899 131 413.903 131 413.906 131C413.91 131 413.914 131 413.917 131C413.921 131 413.924 131 413.928 131C413.932 131 413.935 131 413.939 131C413.942 131 413.946 131 413.95 131C413.953 131 413.957 131 413.961 131C413.964 131 413.968 131 413.971 131C413.975 131 413.979 131 413.982 131C413.986 131 413.99 131 413.993 131C413.997 131 414.001 131 414.004 131C414.008 131 414.011 131 414.015 131C414.019 131 414.022 131 414.026 131C414.03 131 414.033 131 414.037 131C414.041 131 414.044 131 414.048 131C414.052 131 414.055 131 414.059 131C414.063 131 414.066 131 414.07 131C414.074 131 414.077 131 414.081 131C414.085 131 414.088 131 414.092 131C414.096 131 414.099 131 414.103 131C414.107 131 414.11 131 414.114 131C414.118 131 414.121 131 414.125 131C414.129 131 414.133 131 414.136 131C414.14 131 414.144 131 414.147 131C414.151 131 414.155 131 414.158 131C414.162 131 414.166 131 414.169 131C414.173 131 414.177 131 414.181 131C414.184 131 414.188 131 414.192 131C414.195 131 414.199 131 414.203 131C414.207 131 414.21 131 414.214 131C414.218 131 414.221 131 414.225 131C414.229 131 414.233 131 414.236 131C414.24 131 414.244 131 414.248 131C414.251 131 414.255 131 414.259 131C414.262 131 414.266 131 414.27 131C414.274 131 414.277 131 414.281 131C414.285 131 414.289 131 414.292 131C414.296 131 414.3 131 414.304 131C414.307 131 414.311 131 414.315 131C414.319 131 414.322 131 414.326 131C414.33 131 414.334 131 414.337 131C414.341 131 414.345 131 414.349 131C414.352 131 414.356 131 414.36 131C414.364 131 414.367 131 414.371 131C414.375 131 414.379 131 414.383 131C414.386 131 414.39 131 414.394 131C414.398 131 414.401 131 414.405 131C414.409 131 414.413 131 414.417 131C414.42 131 414.424 131 414.428 131C414.432 131 414.436 131 414.439 131C414.443 131 414.447 131 414.451 131C414.455 131 414.458 131 414.462 131C414.466 131 414.47 131 414.474 131C414.477 131 414.481 131 414.485 131C414.489 131 414.493 131 414.496 131C414.5 131 414.504 131 414.508 131C414.512 131 414.516 131 414.519 131C414.523 131 414.527 131 414.531 131C414.535 131 414.539 131 414.542 131C414.546 131 414.55 131 414.554 131C414.558 131 414.562 131 414.565 131C414.569 131 414.573 131 414.577 131C414.581 131 414.585 131 414.588 131C414.592 131 414.596 131 414.6 131C414.604 131 414.608 131 414.612 131C414.615 131 414.619 131 414.623 131C414.627 131 414.631 131 414.635 131C414.639 131 414.642 131 414.646 131C414.65 131 414.654 131 414.658 131C414.662 131 414.666 131 414.669 131C414.673 131 414.677 131 414.681 131C414.685 131 414.689 131 414.693 131C414.697 131 414.7 131 414.704 131C414.708 131 414.712 131 414.716 131C414.72 131 414.724 131 414.728 131C414.732 131 414.735 131 414.739 131C414.743 131 414.747 131 414.751 131C414.755 131 414.759 131 414.763 131C414.767 131 414.771 131 414.775 131C414.778 131 414.782 131 414.786 131C414.79 131 414.794 131 414.798 131C414.802 131 414.806 131 414.81 131C414.814 131 414.818 131 414.822 131C414.825 131 414.829 131 414.833 131C414.837 131 414.841 131 414.845 131C414.849 131 414.853 131 414.857 131C414.861 131 414.865 131 414.869 131C414.873 131 414.877 131 414.881 131C414.884 131 414.888 131 414.892 131C414.896 131 414.9 131 414.904 131C414.908 131 414.912 131 414.916 131C414.92 131 414.924 131 414.928 131C414.932 131 414.936 131 414.94 131C414.944 131 414.948 131 414.952 131C414.956 131 414.96 131 414.964 131C414.968 131 414.972 131 414.976 131C414.98 131 414.984 131 414.988 131C414.991 131 414.995 131 414.999 131C415.003 131 415.007 131 415.011 131C415.015 131 415.019 131 415.023 131C415.027 131 415.031 131 415.035 131C415.039 131 415.043 131 415.047 131C415.051 131 415.055 131 415.059 131C415.063 131 415.067 131 415.071 131C415.075 131 415.079 131 415.083 131C415.087 131 415.091 131 415.095 131C415.099 131 415.103 131 415.107 131C415.111 131 415.115 131 415.12 131C415.124 131 415.128 131 415.132 131C415.136 131 415.14 131 415.144 131C415.148 131 415.152 131 415.156 131C415.16 131 415.164 131 415.168 131C415.172 131 415.176 131 415.18 131C415.184 131 415.188 131 415.192 131C415.196 131 415.2 131 415.204 131C415.208 131 415.212 131 415.216 131C415.22 131 415.225 131 415.229 131C415.233 131 415.237 131 415.241 131C415.245 131 415.249 131 415.253 131C415.257 131 415.261 131 415.265 131C415.269 131 415.273 131 415.277 131C415.281 131 415.286 131 415.29 131C415.294 131 415.298 131 415.302 131C415.306 131 415.31 131 415.314 131C415.318 131 415.322 131 415.326 131C415.33 131 415.335 131 415.339 131C415.343 131 415.347 131 415.351 131C415.355 131 415.359 131 415.363 131C415.367 131 415.371 131 415.376 131C415.38 131 415.384 131 415.388 131C415.392 131 415.396 131 415.4 131C415.404 131 415.408 131 415.412 131C415.417 131 415.421 131 415.425 131C415.429 131 415.433 131 415.437 131C415.441 131 415.445 131 415.45 131C415.454 131 415.458 131 415.462 131C415.466 131 415.47 131 415.474 131C415.479 131 415.483 131 415.487 131C415.491 131 415.495 131 415.499 131C415.503 131 415.507 131 415.512 131C415.516 131 415.52 131 415.524 131C415.528 131 415.532 131 415.537 131C415.541 131 415.545 131 415.549 131C415.553 131 415.557 131 415.562 131C415.566 131 415.57 131 415.574 131V125Z" fill="white" mask="url(#path-2-outside-1_2_11)"/>
</svg>
